<svg width="87" height="108" viewBox="0 0 87 108" fill="none" xmlns="http://www.w3.org/2000/svg">
<g filter="url(#filter0_d_60_40)">
<path d="M31.944 83.8512C32.1319 84.0861 31.944 83.9922 31.991 83.9452C31.991 83.9452 32.0849 83.8512 32.1319 83.8512C32.2728 83.7573 32.4607 83.6634 32.6486 83.6164C33.1653 83.4285 33.6819 83.3815 34.1986 83.2876C35.044 83.1937 35.8425 82.724 36.5001 82.1603C36.688 82.0194 36.9228 81.7846 37.0637 81.5967C37.1577 81.4558 37.1577 81.2679 37.1577 81.08C37.2046 80.4694 37.1577 79.8118 37.1577 79.2012C37.1577 78.8724 37.1107 78.5436 37.0637 78.2148C37.0637 78.027 37.0168 77.7921 36.8758 77.6512C36.688 77.4163 36.3592 77.7451 36.5471 77.98C36.5471 77.933 36.5471 77.98 36.5471 78.0739C36.5471 78.1679 36.5471 78.3088 36.594 78.4027C36.594 78.7315 36.641 79.0133 36.688 79.3421C36.688 79.9527 36.7819 80.5633 36.688 81.174C36.641 81.5967 36.0304 81.9724 35.6546 82.2073C35.2789 82.4891 34.8092 82.677 34.3395 82.7709C33.8228 82.8649 33.3061 82.8649 32.7895 83.0528C32.4607 83.1467 31.0986 83.6164 31.5683 84.18C31.7562 84.4149 32.0849 84.0861 31.8971 83.8512H31.944Z" fill="#17171E"/>
<path d="M35.6076 80.5163C35.5606 80.5163 35.5137 80.5163 35.4667 80.5633C35.3258 80.6103 35.1379 80.7042 34.997 80.7512C34.5743 80.8921 34.1515 81.033 33.7288 81.033C33.6349 81.033 33.5409 81.033 33.447 81.033C33.447 81.033 33.447 81.033 33.4 81.033C33.4 81.033 33.3061 81.033 33.2591 81.033C33.3061 81.033 33.2591 81.033 33.2121 81.033C33.2121 80.9391 33.2591 81.08 33.2121 81.033C33.2121 81.033 33.2121 81.033 33.2121 80.986C33.2121 80.7981 33.2121 80.6572 33.3061 80.5163C33.3061 80.5163 33.3061 80.5163 33.353 80.4693C33.353 80.4693 33.4 80.4693 33.447 80.4693C33.447 80.4693 33.6349 80.4224 33.6818 80.4224C33.9637 80.4224 34.2924 80.4694 34.5273 80.5633C34.95 80.7042 35.3728 80.939 35.7485 81.1739C36.0303 81.3148 36.2652 80.9391 35.9834 80.7512C35.3258 80.3284 34.5743 79.9057 33.7758 79.9057C33.2591 79.9057 32.7894 80.2345 32.7424 80.7512C32.7424 80.986 32.7424 81.2209 32.8833 81.4087C33.0243 81.5497 33.2121 81.6436 33.447 81.6906C33.9637 81.7375 34.4803 81.6436 34.95 81.5027C35.3258 81.4088 35.6546 81.2678 35.9834 81.1269C36.0773 81.08 36.1243 80.8921 36.0773 80.7981C35.9834 80.6572 35.8894 80.6572 35.7485 80.7042L35.6076 80.5163Z" fill="#17171E"/>
<path d="M40.5487 84H32.8927C32.3998 84 32.0002 84.3997 32.0002 84.8924V85.2682C32.0002 85.7609 32.3998 86.1606 32.8927 86.1606H40.5487C41.0415 86.1606 41.4412 85.7609 41.4412 85.2682V84.8924C41.4412 84.3997 41.0415 84 40.5487 84Z" fill="#00D2C6"/>
<path d="M73.7942 79.6239H66.1381C65.6454 79.6239 65.2457 80.0236 65.2457 80.5164V80.8921C65.2457 81.3848 65.6454 81.7845 66.1381 81.7845H73.7942C74.2869 81.7845 74.6866 81.3848 74.6866 80.8921V80.5164C74.6866 80.0236 74.2869 79.6239 73.7942 79.6239Z" fill="#00D2C6"/>
<path d="M48.5 8.14601C48.3915 10.8691 51.3934 12.1346 53.4169 12.5C56.2977 12.6165 58.3424 10.5 58.4362 8.14601C58.5448 5.42288 56.2977 3.12126 53.4169 3.00458C50.5361 2.88791 48.609 5.42288 48.5 8.14601Z" fill="#695151"/>
<mask id="path-6-inside-1_60_40" fill="white">
<path d="M58.5855 6.49156C59.0083 8.60522 57.9747 10.6719 56.1895 11.7522C54.4042 12.8325 51.8203 12.7855 50.082 11.4234C48.4377 10.1552 47.78 7.90066 48.5787 5.97489C49.3773 4.04912 51.3975 2.68699 53.5116 2.64002C55.9076 2.59305 58.1157 4.14306 58.6324 6.49156C58.6794 6.77338 58.2566 6.91429 58.1626 6.63247C57.7398 4.75367 56.0955 3.34457 54.2163 3.15669C52.3371 2.96881 50.27 3.86125 49.2834 5.59914C48.2968 7.33703 48.5787 9.30976 49.8941 10.6719C51.2096 12.034 53.4176 12.4568 55.2029 11.7522C57.27 10.9537 58.5855 8.84006 58.1626 6.63247C58.1157 6.35065 58.5385 6.20974 58.6324 6.49156H58.5855Z"/>
</mask>
<path d="M58.5855 6.49156C59.0083 8.60522 57.9747 10.6719 56.1895 11.7522C54.4042 12.8325 51.8203 12.7855 50.082 11.4234C48.4377 10.1552 47.78 7.90066 48.5787 5.97489C49.3773 4.04912 51.3975 2.68699 53.5116 2.64002C55.9076 2.59305 58.1157 4.14306 58.6324 6.49156C58.6794 6.77338 58.2566 6.91429 58.1626 6.63247C57.7398 4.75367 56.0955 3.34457 54.2163 3.15669C52.3371 2.96881 50.27 3.86125 49.2834 5.59914C48.2968 7.33703 48.5787 9.30976 49.8941 10.6719C51.2096 12.034 53.4176 12.4568 55.2029 11.7522C57.27 10.9537 58.5855 8.84006 58.1626 6.63247C58.1157 6.35065 58.5385 6.20974 58.6324 6.49156H58.5855Z" fill="#665C55"/>
<path d="M58.5855 6.49156C59.0083 8.60522 57.9747 10.6719 56.1895 11.7522C54.4042 12.8325 51.8203 12.7855 50.082 11.4234C48.4377 10.1552 47.78 7.90066 48.5787 5.97489C49.3773 4.04912 51.3975 2.68699 53.5116 2.64002C55.9076 2.59305 58.1157 4.14306 58.6324 6.49156C58.6794 6.77338 58.2566 6.91429 58.1626 6.63247C57.7398 4.75367 56.0955 3.34457 54.2163 3.15669C52.3371 2.96881 50.27 3.86125 49.2834 5.59914C48.2968 7.33703 48.5787 9.30976 49.8941 10.6719C51.2096 12.034 53.4176 12.4568 55.2029 11.7522C57.27 10.9537 58.5855 8.84006 58.1626 6.63247C58.1157 6.35065 58.5385 6.20974 58.6324 6.49156H58.5855Z" fill="#83B1C6"/>
<path d="M58.5855 6.49156L57.6049 6.68772L57.3656 5.49156H58.5855V6.49156ZM50.082 11.4234L50.6928 10.6315L50.6988 10.6363L50.082 11.4234ZM53.5116 2.64002L53.4894 1.64026L53.492 1.64021L53.5116 2.64002ZM58.6324 6.49156L59.6091 6.27666L59.6146 6.30177L59.6188 6.32713L58.6324 6.49156ZM55.2029 11.7522L54.8358 10.822L54.8426 10.8194L55.2029 11.7522ZM59.566 6.29541C60.0788 8.85853 58.82 11.3292 56.7072 12.6078L55.6718 10.8967C57.1294 10.0146 57.9378 8.3519 57.6049 6.68772L59.566 6.29541ZM56.7072 12.6078C54.5902 13.8888 51.5522 13.8459 49.4652 12.2105L50.6988 10.6363C52.0885 11.7252 54.2182 11.7762 55.6718 10.8967L56.7072 12.6078ZM49.4713 12.2153C47.4869 10.6847 46.6748 7.95521 47.655 5.59181L49.5024 6.35798C48.8852 7.84612 49.3886 9.62571 50.6928 10.6316L49.4713 12.2153ZM47.655 5.59181C48.609 3.29151 50.9885 1.69583 53.4894 1.64026L53.5338 3.63977C51.8065 3.67814 50.1457 4.80673 49.5024 6.35798L47.655 5.59181ZM53.492 1.64021C56.3082 1.585 58.9781 3.40938 59.6091 6.27666L57.6558 6.70647C57.2532 4.87674 55.507 3.60109 53.5312 3.63982L53.492 1.64021ZM59.6188 6.32713C59.7435 7.07475 59.2173 7.57991 58.7515 7.72699C58.5079 7.80387 58.199 7.81936 57.8931 7.69015C57.563 7.55068 57.3237 7.27792 57.214 6.94876L59.1113 6.31618C59.0485 6.12793 58.8974 5.94324 58.6714 5.8478C58.4698 5.76263 58.2813 5.77812 58.1493 5.81978C57.9066 5.8964 57.5684 6.1902 57.6461 6.656L59.6188 6.32713ZM57.187 6.85203C56.8611 5.40366 55.578 4.29781 54.1168 4.15173L54.3158 2.16165C56.613 2.39132 58.6185 4.10367 59.1382 6.41291L57.187 6.85203ZM54.1168 4.15173C52.5782 3.99789 50.9191 4.74334 50.153 6.09282L48.4137 5.10545C49.6208 2.97915 52.096 1.93972 54.3158 2.16165L54.1168 4.15173ZM50.153 6.09282C49.3855 7.44479 49.6058 8.93383 50.6135 9.97722L49.1748 11.3666C47.5515 9.6857 47.2081 7.22927 48.4137 5.10545L50.153 6.09282ZM50.6135 9.97722C51.63 11.0299 53.4026 11.3876 54.8358 10.822L55.57 12.6824C53.4326 13.5259 50.7891 13.0382 49.1748 11.3666L50.6135 9.97722ZM54.8426 10.8194C56.5037 10.1777 57.5036 8.50748 57.1805 6.82058L59.1448 6.44436C59.6673 9.17264 58.0363 11.7297 55.5632 12.685L54.8426 10.8194ZM57.1763 6.7969C57.0516 6.04929 57.5778 5.54412 58.0436 5.39705C58.2872 5.32016 58.5961 5.30467 58.9019 5.43388C59.2321 5.57336 59.4714 5.84612 59.5811 6.17528L57.6838 6.80785C57.7465 6.9961 57.8977 7.18079 58.1236 7.27623C58.3253 7.36141 58.5138 7.34592 58.6457 7.30426C58.8884 7.22764 59.2267 6.93383 59.149 6.46804L57.1763 6.7969ZM58.6324 7.49156H58.5855V5.49156H58.6324V7.49156Z" fill="black" mask="url(#path-6-inside-1_60_40)"/>
<path d="M54.4652 2.65353C54.8972 2.75231 55.3293 2.90046 55.7134 3.09801C56.1455 0.974355 58.1139 -0.359108 60.0823 0.0853784C62.0987 0.529865 63.347 2.55475 62.9149 4.62903C62.4828 6.7033 60.5144 8.03676 58.546 7.64166C58.546 7.93799 58.546 8.2837 58.45 8.58002C58.2579 9.51838 57.8258 10.3086 57.1537 11C57.1537 11 55.9535 10.9506 53.2649 8.53063C50.5764 6.16003 50.0002 3.74006 50.0002 3.74006C51.1525 2.75231 52.7848 2.30782 54.4171 2.65353H54.4652Z" fill="#17171E"/>
<path d="M69.2381 38.9479L60.1259 43.3631L68.0169 75.7254L72.0563 74.833L70.8351 60.0844L69.2381 38.9479Z" fill="#17171E"/>
<path d="M58.8578 44.0676C58.8578 44.0676 59.2335 55.6222 59.4684 57.6889C59.7032 59.7556 66.5139 73.3299 66.5139 73.3299L69.3791 72.6254L63.7896 42.5645L58.9048 44.1146L58.8578 44.0676Z" fill="#17171E"/>
<path d="M57.7775 49.2343C57.7775 49.2343 54.2078 51.6768 46.9744 53.8843C43.1698 55.0586 36.594 57.3132 35.6546 57.7829C33.5409 58.8162 36.3122 77.1345 36.3122 77.1345H39.8819C39.8819 77.1345 40.2577 70.183 40.8683 64.5935C40.9152 64.1708 41.8546 63.4193 42.6531 62.9496C41.9956 63.7011 41.4319 65.5799 41.1971 66.5193C40.5395 69.4784 43.1228 83.8982 43.1228 83.8982L46.7865 83.8042C46.7865 83.8042 46.6456 69.5254 46.9274 68.2572C47.4441 65.9087 50.4971 62.198 53.4562 59.6147C55.382 57.9238 56.6032 56.045 56.932 55.5753C58.8108 52.7571 57.8714 49.4222 57.6835 49.2343H57.7775Z" fill="#17171E"/>
<path d="M33.2425 42.8389C32.7728 42.7919 32.2217 42.7026 31.705 42.7026C30.8596 42.7026 29.9671 42.7496 29.1687 43.0784C28.7929 43.2193 28.5111 43.4542 28.2762 43.7829C27.9944 44.2057 27.9005 44.7693 27.8535 45.239C27.7596 46.2254 27.9474 47.3996 28.699 48.1042C29.0277 48.433 29.4974 48.6678 29.9671 48.6678C30.6247 48.6678 31.1884 48.2921 31.6581 47.9163C31.8929 47.7284 33.5 47.5 33.5 47C33.5 46.5 33.5 46.5 33.5 46.5C33.5 46.5 33.5 46.5 33.5 45.5C33.5 45.0773 33.5 44.5 33.5 44C33.5 43.6948 33.5 44.3805 33.5 44C33.5 43.6829 33.5 44.2538 33.5 43.5C33.5 43.146 33.5 43 33.5 43C33.5 43 33.5243 42.8859 33.2425 42.8389Z" fill="#E3C7B5"/>
<path d="M33.1612 42.7966C32.6915 42.7496 32.2218 42.7026 31.7051 42.7026C30.8596 42.7026 29.9672 42.7496 29.1687 43.0784C28.7929 43.2193 28.5111 43.4541 28.2763 43.7829C27.9945 44.2057 27.9005 44.7693 27.8535 45.239C27.7596 46.2254 27.9475 47.3996 28.699 48.1042C29.0278 48.433 29.4975 48.6678 29.9672 48.6678C30.6248 48.6678 31.1884 48.2921 31.6581 47.9163C31.893 47.7284 31.5642 47.3996 31.3293 47.5875C30.6718 48.1511 29.7793 48.5269 29.0748 47.8224C28.4172 47.2117 28.2763 46.1784 28.3232 45.286C28.3232 44.8632 28.4172 44.3466 28.699 44.0178C28.8869 43.7829 29.1217 43.5951 29.4505 43.4542C30.1551 43.1723 30.9066 43.1254 31.6581 43.1254C31.9869 43.1254 32.3157 43.1254 32.6915 43.1723C32.7854 43.1723 32.9263 43.1723 33.0203 43.1723C33.1142 43.1723 33.0203 43.1723 33.0672 43.1723C33.349 43.1723 33.4899 42.7496 33.2081 42.7026L33.1612 42.7966Z" fill="#17171E"/>
<path d="M67.923 76.4769C67.923 76.383 67.923 76.5239 67.923 76.5708C67.923 76.7587 67.876 76.8996 67.8291 77.0405C67.7351 77.5572 67.6412 78.0739 67.5003 78.6375C67.2185 79.7648 66.9366 81.08 66.1851 81.9724C66.0442 82.1603 66.1851 82.3951 66.42 82.3482C66.8427 82.2542 67.3124 82.0663 67.6882 81.8315C68.6745 81.2679 69.473 80.4224 70.0367 79.436C70.5533 78.5905 70.8821 77.6981 71.117 76.7587C71.2109 76.4769 70.7412 76.336 70.6473 76.6178C70.1306 78.7315 68.8624 80.986 66.6548 81.7376C66.5139 81.7376 66.373 81.8315 66.2321 81.8315L66.4669 82.2073C67.2654 81.2679 67.5942 79.9057 67.8761 78.7315C68.0639 77.933 68.2048 77.1345 68.2988 76.336C68.2988 76.0542 67.876 76.0542 67.8291 76.336L67.923 76.4769Z" fill="#17171E"/>
<path d="M71.7275 75.3966C71.7275 76.5709 71.6335 77.7921 71.6335 78.9663V79.483C71.6335 79.7648 72.0563 79.7648 72.1032 79.483C72.1032 78.3087 72.1972 77.0875 72.1972 75.9133V75.3966C72.1972 75.1148 71.7745 75.1148 71.7275 75.3966Z" fill="#17171E"/>
<path d="M66.5609 73.7527C66.5609 73.6587 66.5609 73.7996 66.5609 73.8466C66.5609 74.0345 66.5139 74.1754 66.467 74.3163C66.373 74.833 66.2791 75.3496 66.1382 75.9133C65.8563 77.0406 65.5745 78.3557 64.823 79.2481C64.6821 79.436 64.823 79.6709 65.0579 79.6239C65.9503 79.483 66.7488 78.9194 67.4064 78.3557C67.6412 78.1678 67.3124 77.839 67.0776 78.0269C66.5139 78.5436 65.7154 79.0603 64.9169 79.2012L65.1518 79.5769C65.9503 78.6375 66.2791 77.2754 66.5609 76.1012C66.7488 75.3027 66.8897 74.5042 66.9836 73.7057C66.9836 73.4239 66.5609 73.4239 66.5139 73.7057L66.5609 73.7527Z" fill="#17171E"/>
<g filter="url(#filter1_d_60_40)">
<path d="M36.8622 17.122C36.3455 18.2493 36.3455 19.6114 36.8622 20.7387V20.5038C36.4864 21.0675 36.2985 21.866 36.7682 22.4296C37.2379 22.9932 38.0834 22.9932 38.741 22.6644H38.5061C39.6334 23.369 41.1364 23.369 42.3577 23.0402C42.6395 22.9463 46.0334 21.4212 46.0334 20.9212C46.6383 20.5038 44.5334 17.9212 42.5334 17.4212C42 18.5 41.7682 20.0621 41.5334 19.9212C41.3925 19.8743 41.2213 20.3743 41.0334 20.4212C43.6076 18.6007 41.8152 19.9682 41.5334 19.9212C41.1107 19.8273 40.4864 20.844 40.5334 20.4212C40.5334 20.1394 39.9394 20.7031 40.0334 20.4212C40.1273 20.2803 39.1011 19.6244 39.0334 19.4212C38.9394 19.1394 38.5061 18.0673 38.4592 17.7385C38.4122 17.2218 38.0334 17.4212 38.0334 17.4212C38.0334 17.2803 37.2379 17.6856 37.2849 17.4977C37.2849 17.4508 37.4864 17.4682 37.5334 17.4212C37.6743 17.1394 37.0501 16.8402 36.9091 17.122H36.8622Z" fill="#E3C7B5"/>
</g>
<path d="M38.5668 90.474C38.7077 90.6619 38.5668 90.6149 38.6607 90.521L38.7546 90.427C38.8956 90.3331 39.0365 90.1922 39.1774 90.1452C39.6001 89.9103 40.0698 89.7694 40.5395 89.6755C41.0562 89.5816 41.5259 89.5816 41.9956 89.3937C42.4183 89.2528 42.841 89.0179 43.2168 88.7831C43.6395 88.5013 44.0623 88.2194 44.1092 87.7497C44.2032 87.1861 44.1092 86.5755 44.1092 85.9649C44.1092 85.6361 44.0623 85.3073 44.0153 84.9785C44.0153 84.7906 43.9683 84.5558 43.8274 84.4149C43.6395 84.18 43.3107 84.5088 43.4986 84.7436C43.4986 84.6967 43.4986 84.7436 43.4986 84.8376C43.4986 84.9315 43.4986 85.0724 43.5456 85.1664C43.5456 85.4952 43.5926 85.777 43.6395 86.1058C43.6395 86.6694 43.7335 87.2331 43.6395 87.7967C43.6395 87.8906 43.6395 87.8437 43.6395 87.8906C43.5456 87.9846 43.4516 88.0785 43.3577 88.1725C43.0289 88.4073 42.6532 88.6422 42.2774 88.83C41.385 89.2528 40.3516 89.1588 39.4592 89.5816C39.0834 89.7225 37.9092 90.2861 38.3789 90.8497C38.5668 91.0846 38.8955 90.7558 38.7077 90.521L38.5668 90.474Z" fill="#17171E"/>
<path d="M46.3637 85.2603C46.6456 86.5285 46.9744 87.7497 47.4441 88.9709C47.538 89.2058 47.6319 89.4876 47.7259 89.7225C47.7259 89.7694 47.7728 89.8164 47.8198 89.9103C47.8668 90.1921 48.3365 90.0982 48.2895 89.7694C48.2895 89.6755 48.1956 89.5816 48.1486 89.4876C48.0547 89.2528 47.9607 89.0649 47.8668 88.7831C47.4441 87.5618 47.1153 86.3406 46.7865 85.0724C46.7395 84.7906 46.2698 84.8845 46.3168 85.2133L46.3637 85.2603Z" fill="#17171E"/>
<path d="M39.5062 78.9663C39.835 80.1406 40.1638 81.3618 40.5395 82.5361C40.6335 82.9118 40.8214 83.2406 40.8683 83.6164C40.9153 83.8982 41.385 83.8042 41.338 83.4755C41.2441 83.0997 41.1032 82.7709 41.0092 82.3951C40.6335 81.2209 40.3047 80.0466 39.9759 78.8254C39.882 78.5436 39.4592 78.6375 39.5062 78.9663Z" fill="#17171E"/>
<path d="M34.4334 84.2739C34.4334 90.474 30.3939 96.1104 24.5697 98.1771C18.6984 100.291 11.9347 98.5059 7.8953 93.7149C3.85588 88.924 3.33921 81.9254 6.58014 76.6178C9.86804 71.2632 16.3029 68.492 22.409 69.7602C28.5151 71.0284 33.2121 75.8663 34.1985 81.9254C34.3394 82.7239 34.3864 83.4754 34.3864 84.2739C34.3864 84.5558 34.8561 84.5558 34.8561 84.2739C34.8561 77.886 30.7227 72.1087 24.7575 69.9481C18.6514 67.7405 11.6059 69.6193 7.47257 74.5981C3.33921 79.5769 2.86951 86.6694 6.20438 92.1649C9.53925 97.6604 16.162 100.526 22.503 99.2574C28.75 98.0362 33.7758 92.9164 34.7152 86.5755C34.8091 85.824 34.9031 85.0255 34.9031 84.2739C34.9031 83.9921 34.4334 83.9921 34.4334 84.2739Z" fill="#17171E"/>
<path d="M82.5776 84.2739C82.5776 90.474 78.5381 96.1104 72.7139 98.1771C66.8426 100.291 60.0789 98.5059 56.0395 93.7149C52.0001 88.924 51.4834 81.9254 54.7243 76.6178C57.9653 71.3102 64.4471 68.492 70.5532 69.7602C76.6593 71.0284 81.3564 75.8663 82.3427 81.9254C82.4836 82.7239 82.5306 83.4754 82.5306 84.2739C82.5306 84.5558 83.0003 84.5558 83.0003 84.2739C83.0003 77.886 78.8669 72.1087 72.8548 69.9481C66.7487 67.7405 59.7032 69.6193 55.5698 74.5981C51.4364 79.5769 50.9198 86.6694 54.3016 92.1649C57.6834 97.6604 64.2593 100.526 70.6002 99.2574C76.8472 98.0362 81.873 92.9164 82.8124 86.5755C82.9064 85.824 83.0003 85.0255 83.0003 84.2739C83.0003 83.9921 82.5306 83.9921 82.5306 84.2739H82.5776Z" fill="#17171E"/>
<path d="M27.3409 62.0571C28.5152 62.7617 29.6894 63.4662 30.8167 64.2177L39.1773 69.3375C42.5591 71.4041 45.941 73.4708 49.3228 75.5845C52.235 77.3693 55.1941 79.1542 58.1062 80.986L61.0184 82.7709C61.4411 83.0527 61.9108 83.3815 62.3805 83.6164C62.3805 83.6164 62.3805 83.6164 62.4275 83.6164C62.7093 83.7573 62.9441 83.3815 62.6623 83.1936C61.4881 82.4891 60.3138 81.7845 59.1865 81.033L50.8259 75.9133C47.444 73.8466 44.0622 71.7799 40.6803 69.6663C37.7682 67.8814 34.8091 66.0965 31.897 64.2647L28.9849 62.4798C28.5621 62.198 28.0924 61.8692 27.6227 61.6344C27.6227 61.6344 27.6227 61.6344 27.5758 61.6344C27.2939 61.4935 27.0591 61.8692 27.3409 62.0571Z" fill="#17171E"/>
<path d="M27.9515 46.51C26.8712 46.51 25.7909 46.51 24.7106 46.51C24.4757 46.51 24.4288 46.8388 24.6166 46.9328C25.6969 47.6843 26.7303 48.5297 27.6697 49.5161C28.1864 50.0798 28.8439 50.7843 28.9849 51.5828C29.0788 51.9116 28.9849 52.1934 28.9849 52.5222C28.6091 54.9177 28.2333 57.3131 27.8106 59.7086C26.7773 65.7677 25.8379 71.8739 24.5697 77.886C24.5227 78.2148 24.4288 78.4966 24.3348 78.8254C24.2409 79.2012 23.7712 79.6709 23.3954 79.9997C22.3151 81.1269 21.0939 82.1603 19.8727 83.1467C19.6378 83.3345 19.9666 83.6633 20.2015 83.4755C21.2818 82.583 22.409 81.6906 23.3954 80.7042C24.053 80.0466 24.6636 79.483 24.8985 78.5436C25.4621 76.1481 25.8379 73.6587 26.3076 71.2632C27.3879 65.1102 28.5152 58.9571 29.4546 52.804C29.4546 52.4752 29.5955 52.1464 29.5485 51.8176C29.5485 50.9722 28.9379 50.2207 28.4212 49.6101C27.4348 48.4358 26.1667 47.4494 24.8985 46.557L24.8045 46.9797C25.8848 46.9797 26.9651 46.9797 28.0455 46.9797C28.3273 46.9797 28.3273 46.51 28.0455 46.51H27.9515Z" fill="#17171E"/>
<path d="M23.3015 46.6509C23.3015 47.5434 23.2075 48.7646 22.5969 49.4222C22.0333 50.0328 21.5636 48.9055 21.4226 48.4828C21.0939 47.4494 21.0939 46.2282 21.3287 45.1949C21.4226 44.8191 21.7514 43.363 22.409 43.7388C22.7378 43.9267 22.9257 44.4434 23.0196 44.7721C23.2075 45.3828 23.2545 46.0403 23.2545 46.6509C23.2545 46.9328 23.7242 46.9328 23.7242 46.6509C23.7242 45.9464 23.6302 45.2418 23.4424 44.5843C23.3014 44.1615 23.1136 43.6449 22.7378 43.363C21.9393 42.7524 21.2817 43.7388 20.9999 44.3964C20.5302 45.6176 20.5302 47.1207 20.859 48.3888C21.0469 49.0464 21.5166 50.3616 22.456 49.9858C22.8787 49.7979 23.1605 49.3282 23.3015 48.9055C23.5833 48.201 23.6772 47.4025 23.6772 46.604C23.6772 46.3222 23.2075 46.3222 23.2075 46.604L23.3015 46.6509Z" fill="#17171E"/>
<path d="M47.5488 90H39.8927C39.4 90 39.0002 90.3997 39.0002 90.8924V91.2682C39.0002 91.7609 39.4 92.1606 39.8927 92.1606H47.5488C48.0415 92.1606 48.4412 91.7609 48.4412 91.2682V90.8924C48.4412 90.3997 48.0415 90 47.5488 90Z" fill="#00D2C6"/>
<path d="M43.0758 82.3951C43.0288 82.3951 42.9819 82.3951 42.9349 82.4421C42.794 82.4891 42.6061 82.583 42.4652 82.63C42.0425 82.7709 41.6197 82.9118 41.197 82.9118C41.1031 82.9118 41.0091 82.9118 40.9152 82.9118C40.9152 82.9118 40.9152 82.9118 40.8682 82.9118C40.8682 82.9118 40.7743 82.9118 40.7273 82.9118C40.7743 82.9118 40.7273 82.9118 40.6803 82.9118C40.6803 82.8179 40.7273 82.9588 40.6803 82.9118C40.6803 82.9118 40.6803 82.9118 40.6803 82.8648C40.6803 82.6769 40.6803 82.536 40.7743 82.3951C40.7743 82.3951 40.7743 82.3951 40.8212 82.3482C40.8212 82.3482 40.8682 82.3482 40.9152 82.3482C40.9152 82.3482 41.1031 82.3012 41.15 82.3012C41.4319 82.3012 41.7606 82.3012 41.9955 82.4421C42.4182 82.583 42.841 82.8179 43.2167 83.0527C43.4985 83.1936 43.7334 82.8179 43.4516 82.63C42.794 82.2072 42.0425 81.7845 41.244 81.7845C40.7273 81.7845 40.2576 82.1133 40.2106 82.63C40.2106 82.8648 40.2106 83.0997 40.3515 83.2876C40.4925 83.4285 40.6803 83.5224 40.9152 83.5224C41.4319 83.5694 41.9485 83.4754 42.4182 83.3345C42.794 83.2406 43.1228 83.0997 43.4516 82.9588C43.5455 82.9118 43.5925 82.7239 43.5455 82.63C43.4516 82.4891 43.3576 82.4891 43.2167 82.5361L43.0758 82.3951Z" fill="#17171E"/>
<path d="M72.573 34.1569L69.379 37.21C69.379 37.21 68.0639 30.3054 68.2518 29.8357C68.4396 29.366 69.3321 28.0038 69.3321 28.0038L72.573 34.1569Z" fill="#A3DAD9"/>
<g filter="url(#filter2_d_60_40)">
<path d="M69.0723 28.291C69.0723 28.291 70.9981 26.8349 71.186 26.1774C71.4208 25.4258 69.8238 23.3122 69.495 22.8895C66.348 18.8031 64.5162 16.8303 62.5904 14.8106C61.0874 13.2136 58.3631 10.8651 57.3768 11.006C54.9343 11.3818 54.3237 12.0394 53.7131 13.7303C53.1964 15.0455 52.7267 24.8622 52.4919 27.7274V28.8077V28.8546L55.8268 35.1017L52.8207 38.7183C52.8207 38.7183 52.257 37.4032 52.0692 36.3698C51.7873 38.4835 50.801 46.9381 51.0358 47.0321C51.3176 47.126 68.6026 41.8184 69.8708 41.3017C71.139 40.785 72.9239 40.1275 72.9239 37.3562C72.9239 35.9471 71.9845 33.7395 69.0723 28.244V28.291Z" fill="#9DCDF4"/>
</g>
<path d="M50.4972 31.3387C50.4972 31.3387 48.1956 32.3251 48.2896 33.1236C48.3835 33.9221 50.0744 33.1705 50.0744 33.1705C50.0744 33.1705 47.3032 35.7539 47.9138 36.9281C48.5244 38.1024 53.2684 36.9751 53.2684 36.9751" fill="#094D92"/>
<path d="M48.8969 32.0733L53.5705 29.3134L56.5681 34.9679L51.8709 37.4156L48.8969 32.0733Z" fill="#695151"/>
<path d="M47.8627 36.386C48.1477 37.443 49.7898 37.8626 51.5304 37.3233C53.2709 36.7841 54.4509 35.4901 54.1659 34.4332C53.8809 33.3762 52.2391 32.9565 50.4986 33.4957C48.758 34.0349 47.578 35.3289 47.8627 36.386Z" fill="#695151"/>
<path d="M48.1729 33.1127C48.2528 33.5396 49.5681 33.4785 51.1106 32.9763C52.6531 32.4741 53.8389 31.7209 53.759 31.294C53.6791 30.8671 52.3641 30.9281 50.8216 31.4303C49.279 31.9325 48.0933 32.6857 48.1729 33.1127Z" fill="#695151"/>
<path d="M50.3562 31.1509C49.6986 31.4327 48.9471 31.8085 48.4304 32.3251C48.1486 32.56 47.8668 32.9827 48.0546 33.3585C48.2425 33.7342 48.7122 33.7342 49.088 33.6873C49.4637 33.6403 49.7925 33.4994 50.1213 33.3585L49.8395 32.9827C49.4168 33.4054 48.994 33.8282 48.6652 34.2979C48.1955 34.9085 47.538 35.707 47.538 36.5055C47.538 37.304 48.1955 37.4919 48.8531 37.5858C49.7456 37.6797 50.638 37.5858 51.5304 37.4918C52.0941 37.3979 52.9364 37.1409 53.5 37C53.7818 36.953 53.4562 36.6464 53.1274 36.6933C51.9531 36.9752 50.685 37.163 49.4637 37.163C49.041 37.163 48.1016 37.1631 48.0077 36.5994C47.9607 36.3176 48.1016 35.9418 48.2425 35.707C48.4304 35.3312 48.6652 35.0024 48.9471 34.6736C49.3228 34.2039 49.7456 33.7342 50.1683 33.3115C50.3562 33.1236 50.1213 32.8418 49.8865 32.9357C49.9804 32.8888 49.8865 32.9357 49.8395 32.9357C49.7456 32.9357 49.6986 32.9827 49.6046 33.0297C49.4168 33.0767 49.1819 33.1706 48.9471 33.2176C48.8531 33.2176 48.5243 33.2645 48.4774 33.1706C48.3834 33.0767 48.5243 32.8888 48.5713 32.7948C48.8531 32.4191 51.5773 30.7348 52 30.5C55.5 28.5 54.2182 28.6409 54.5 28.5C54.7818 28.3591 50.544 31.01 50.3092 31.1039L50.3562 31.1509Z" fill="#17171E"/>
<path d="M51.0138 34.7206C50.0744 35.2842 49.088 35.7069 48.0547 35.9888L51.0138 34.7206Z" fill="white"/>
<path d="M30.5349 47.1206C32.0849 47.1206 33.6348 47.1206 35.2318 47.1206C35.4667 47.1206 35.7015 47.1206 35.8894 47.1206C36.1712 47.1206 36.1712 46.6509 35.8894 46.6509C34.3394 46.6509 32.7894 46.6509 31.1924 46.6509C30.9576 46.6509 30.7227 46.6509 30.5349 46.6509C30.253 46.6509 30.253 47.1206 30.5349 47.1206Z" fill="#17171E"/>
<path d="M50.9667 34.5796C50.7319 34.6266 50.497 34.7675 50.2622 34.8615C50.0273 34.9554 49.7455 35.0963 49.5107 35.1903C49.2758 35.2842 48.994 35.3781 48.7591 35.4721C48.5243 35.566 48.2425 35.613 48.0076 35.7069C47.7728 35.8009 47.8667 36.1297 48.1016 36.0827C48.3834 36.0357 48.6652 35.9418 48.947 35.8478C49.2288 35.7539 49.4637 35.66 49.6985 35.566C49.9334 35.4721 50.1682 35.3312 50.4031 35.1903C50.6379 35.0494 50.9198 34.9084 51.1076 34.7206C51.2016 34.6266 51.1076 34.5327 51.0137 34.5327L50.9667 34.5796Z" fill="#17171E"/>
<path d="M51.8123 36.1296C50.6851 36.6933 49.4169 37.0221 48.1487 37.069L51.8123 36.1296Z" fill="white"/>
<path d="M51.8123 36.0357C50.638 36.5054 49.4637 36.7872 48.1956 36.8342C47.9137 36.8342 47.9137 37.3039 48.1956 37.3039C49.4637 37.3039 50.8259 36.9281 51.9062 36.2236C52.0001 36.1766 51.9062 35.9887 51.8123 36.0357Z" fill="#17171E"/>
<path d="M53.5 36.5002C66 28.5001 66 28.5002 68.5 27.0002C68.6879 26.8123 67.6641 27.7695 67.4336 27.9451C63.4336 30.4451 57.7802 33.9835 53.5999 36.9426C52.0769 36.9426 53.0925 36.743 53.5 36.5002Z" fill="#17171E"/>
<path d="M53.5 29.5C54.8621 28.8424 57.0259 27.1114 58.341 26.2659C58.9986 25.8432 59.6562 25.4205 60.2668 24.9977C60.7365 24.7159 61.2062 24.4341 61.441 23.9644C61.8638 23.1659 61.488 22.2735 61.1592 21.522C60.9244 20.9583 60.6895 20.3947 60.4547 19.831C60.2198 19.2204 60.0319 18.5629 59.7032 17.9992C59.6092 17.8113 59.3274 17.9522 59.3744 18.1401C59.4683 18.7038 59.7971 19.3144 60.0319 19.831C60.2198 20.3007 60.4077 20.7235 60.5956 21.1932C60.9713 22.0386 61.6759 23.1189 60.9713 24.0114C60.5956 24.4811 59.891 24.8099 59.3744 25.1856C58.8107 25.5614 58.2001 25.9841 57.6365 26.3599C56.5562 27.1114 55.3349 27.769 54.3486 28.6614L53.5 29.5Z" fill="#17171E"/>
<g filter="url(#filter3_d_60_40)">
<path d="M36.8288 17.2007C36.3121 18.328 36.3121 19.6902 36.8288 20.8174V20.5826C36.453 21.1462 36.2651 21.9447 36.7348 22.5084C37.2045 23.072 38.05 23.072 38.7076 22.7432H38.4727C39.6 23.4478 41.1031 23.4478 42.3243 23.119C42.6061 23.025 42.4652 22.6023 42.1834 22.6493C41.2909 22.9311 40.3515 22.9311 39.4591 22.6493C39.2243 22.6023 39.0364 22.5083 38.8015 22.3674C38.6606 22.3205 38.6136 22.2735 38.4258 22.3205C38.1909 22.4144 37.9091 22.5084 37.6273 22.4614C37.2045 22.3674 36.9227 21.9917 36.9697 21.569C36.9697 21.2871 37.1576 21.0993 37.2515 20.8174C37.3455 20.6765 37.2515 20.5826 37.2515 20.4417C37.1576 20.1599 37.0636 19.878 37.0167 19.5492C36.9697 19.0326 37.0167 18.5159 37.1106 18.0462C37.1106 17.9053 37.2045 17.7644 37.2515 17.5765C37.2515 17.5295 37.2515 17.4826 37.2985 17.4356C37.4394 17.1538 37.0167 16.9189 36.8758 17.2007H36.8288Z" fill="#17171E"/>
</g>
<path d="M53.7357 29.3904L56.458 35.0619" stroke="black" stroke-width="0.25"/>
<path d="M44 18.5C44 18.1712 43.454 17.6137 43.2191 17.3789C42.8903 17.0031 42.4849 17.3515 42.2031 17.6803C41.8273 18.15 42.0152 18.7606 41.9212 19.2773C41.7334 20.3107 40.1364 20.5455 39.4788 19.841C38.7273 19.0425 39.2909 17.3046 37.8348 17.2106C37.0364 17.1637 38.7985 17.3288 38 17C37.1075 16.6242 38.3133 18.15 38.736 17.2106C39.4875 15.4727 37.7486 17.0151 38.8759 18.0955C39.2909 21.6597 41.4046 20.0374 41.4985 19.9434C42.4849 19.4267 42.0357 17.0031 43.069 17.3789C44.5 21 46 19.1712 46 19.5C45.6307 18.8302 46.1264 20.3307 46.1734 20.0489C46.1032 17.6064 45.1937 15.1909 42.8922 14.2045C41.718 13.6879 40.4652 13.5939 39.2909 14.2045H39.5727C38.4924 13.2182 36.6606 12.8894 35.2985 13.5C33.9363 14.1106 33.3727 15.8955 34.5 16.9758C35.0636 17.5394 35.9091 17.7743 36.7076 17.7273C37.4121 17.7273 38.2576 17.3985 38.5394 18.244C38.7742 18.9485 38.7273 19.6531 39.2439 20.1697C39.8546 20.7804 40.747 20.7804 41.4985 20.4516C42.0633 19.841 42.3085 19.4182 42.3085 18.5728C42.3085 17.7273 42.5303 17.0303 43 17.5C43.1409 17.6409 43.5 18.2909 43.5 18.5728C43.5 18.8546 47 21.3138 46 19.5L44 18.5Z" fill="#826644"/>
<path d="M44 18.5C44 18.1712 43.454 17.6137 43.2191 17.3789C42.8903 17.0031 42.4849 17.3515 42.2031 17.6803C41.8273 18.15 42.0152 18.7606 41.9212 19.2773C41.7334 20.3107 40.1364 20.5455 39.4788 19.841C38.7273 19.0425 39.2909 17.3046 37.8348 17.2106C37.0364 17.1637 38.7985 17.3288 38 17C37.1075 16.6242 38.3133 18.15 38.736 17.2106C39.4875 15.4727 37.7486 17.0151 38.8759 18.0955C39.2909 21.6597 41.4046 20.0374 41.4985 19.9434C42.4849 19.4267 42.0357 17.0031 43.069 17.3789C44.5 21 46 19.1712 46 19.5C45.6307 18.8302 46.1264 20.3307 46.1734 20.0489C46.1032 17.6064 45.1937 15.1909 42.8922 14.2045C41.718 13.6879 40.4652 13.5939 39.2909 14.2045H39.5727C38.4924 13.2182 36.6606 12.8894 35.2985 13.5C33.9363 14.1106 33.3727 15.8955 34.5 16.9758C35.0636 17.5394 35.9091 17.7743 36.7076 17.7273C37.4121 17.7273 38.2576 17.3985 38.5394 18.244C38.7742 18.9485 38.7273 19.6531 39.2439 20.1697C39.8546 20.7804 40.747 20.7804 41.4985 20.4516C42.0633 19.841 42.3085 19.4182 42.3085 18.5728C42.3085 17.7273 42.5303 17.0303 43 17.5C43.1409 17.6409 43.5 18.2909 43.5 18.5728C43.5 18.8546 47 21.3138 46 19.5L44 18.5Z" fill="black" fill-opacity="0.2"/>
<g filter="url(#filter4_d_60_40)">
<path d="M50.3152 23.2733C49.2819 21.3475 47.9667 19.7506 46.1819 20.0324C43.7394 20.4082 43.1288 21.0657 42.5182 22.7566C42.0015 24.0718 41.6727 34.0764 41.3909 36.8946L33.2181 42.1083C33.2181 42.1083 32.8424 50.1402 33.0772 50.0462C36.2242 48.825 41.1561 44.7386 41.1561 44.8795C41.1561 45.0204 39.5591 55.9175 39.8409 56.0584C40.1227 56.1993 57.4077 50.8447 58.6759 50.3281C59.9441 49.8114 61.7289 49.1538 61.7289 46.3826C61.7289 45.0674 59.0986 39.7128 56.3274 34.4992L50.3152 23.2733Z" fill="#094D92"/>
</g>
<path d="M43.6864 18.6098C43.6864 18.281 43.5925 17.8114 43.3576 17.5765C43.0288 17.2007 42.4182 17.3416 42.1364 17.6704C41.7607 18.1401 41.9485 18.7508 41.8546 19.2674C41.6667 20.3008 40.0697 20.5356 39.4121 19.8311C38.6606 19.0326 39.2243 17.2947 37.7682 17.2007C36.9697 17.1538 36.2182 17.3886 35.4197 17.0598C34.5273 16.6841 34.0106 15.7447 34.4333 14.8053C35.1848 13.0674 38.05 13.4901 39.1773 14.5704C39.2712 14.6644 39.3652 14.6644 39.4591 14.5704C40.4455 14.0538 41.7607 14.0537 42.794 14.4295C45.0486 15.275 46.0819 17.8583 45.8001 20.1129C45.8001 20.3947 46.2228 20.3947 46.2698 20.1129C46.5516 17.7174 45.3773 15.0401 43.0758 14.0538C41.9016 13.5371 40.3985 13.584 39.2243 14.1947H39.5061C38.4258 13.2083 36.5939 12.8795 35.2318 13.4901C33.8697 14.1007 33.306 15.8856 34.4333 16.9659C34.997 17.5295 35.8424 17.7644 36.6409 17.7174C37.3455 17.7174 38.1909 17.3886 38.4727 18.2341C38.7076 18.9386 38.6606 19.6432 39.1773 20.1599C39.7879 20.7705 40.6803 20.7705 41.4319 20.4417C42.2773 20.0659 42.4182 19.4083 42.4182 18.5629C42.4182 17.7174 42.6531 17.3417 43.1228 17.8114C43.2637 17.9523 43.3107 18.2811 43.3107 18.5159C43.3107 18.7977 45.8001 20.3947 45.8001 20.1129L43.6864 18.6098Z" fill="#17171E"/>
<path d="M43.6864 18.6098C43.6864 18.281 43.5925 17.8114 43.3576 17.5765C43.0288 17.2007 42.4182 17.3416 42.1364 17.6704C41.7607 18.1401 41.9485 18.7508 41.8546 19.2674C41.6667 20.3008 40.0697 20.5356 39.4121 19.8311C38.6606 19.0326 39.2243 17.2947 37.7682 17.2007C36.9697 17.1538 36.2182 17.3886 35.4197 17.0598C34.5273 16.6841 34.0106 15.7447 34.4333 14.8053C35.1848 13.0674 38.05 13.4901 39.1773 14.5704C39.2712 14.6644 39.3652 14.6644 39.4591 14.5704C40.4455 14.0538 41.7607 14.0537 42.794 14.4295C45.0486 15.275 46.0819 17.8583 45.8001 20.1129C45.8001 20.3947 46.2228 20.3947 46.2698 20.1129C46.5516 17.7174 45.3773 15.0401 43.0758 14.0538C41.9016 13.5371 40.3985 13.584 39.2243 14.1947H39.5061C38.4258 13.2083 36.5939 12.8795 35.2318 13.4901C33.8697 14.1007 33.306 15.8856 34.4333 16.9659C34.997 17.5295 35.8424 17.7644 36.6409 17.7174C37.3455 17.7174 38.1909 17.3886 38.4727 18.2341C38.7076 18.9386 38.6606 19.6432 39.1773 20.1599C39.7879 20.7705 40.6803 20.7705 41.4319 20.4417C42.2773 20.0659 42.4182 19.4083 42.4182 18.5629C42.4182 17.7174 42.6531 17.3417 43.1228 17.8114C43.2637 17.9523 43.3107 18.2811 43.3107 18.5159C43.3107 18.7977 45.8001 20.3947 45.8001 20.1129L43.6864 18.6098Z" fill="black" fill-opacity="0.2"/>
</g>
<defs>
<filter id="filter0_d_60_40" x="0" y="0" width="87.0003" height="107.555" filterUnits="userSpaceOnUse" color-interpolation-filters="sRGB">
<feFlood flood-opacity="0" result="BackgroundImageFix"/>
<feColorMatrix in="SourceAlpha" type="matrix" values="0 0 0 0 0 0 0 0 0 0 0 0 0 0 0 0 0 0 127 0" result="hardAlpha"/>
<feOffset dy="4"/>
<feGaussianBlur stdDeviation="2"/>
<feComposite in2="hardAlpha" operator="out"/>
<feColorMatrix type="matrix" values="0 0 0 0 0 0 0 0 0 0 0 0 0 0 0 0 0 0 0.25 0"/>
<feBlend mode="normal" in2="BackgroundImageFix" result="effect1_dropShadow_60_40"/>
<feBlend mode="normal" in="SourceGraphic" in2="effect1_dropShadow_60_40" result="shape"/>
</filter>
<filter id="filter1_d_60_40" x="32.4747" y="17.0088" width="17.6643" height="14.2442" filterUnits="userSpaceOnUse" color-interpolation-filters="sRGB">
<feFlood flood-opacity="0" result="BackgroundImageFix"/>
<feColorMatrix in="SourceAlpha" type="matrix" values="0 0 0 0 0 0 0 0 0 0 0 0 0 0 0 0 0 0 127 0" result="hardAlpha"/>
<feOffset dy="4"/>
<feGaussianBlur stdDeviation="2"/>
<feComposite in2="hardAlpha" operator="out"/>
<feColorMatrix type="matrix" values="0 0 0 0 0 0 0 0 0 0 0 0 0 0 0 0 0 0 0.25 0"/>
<feBlend mode="normal" in2="BackgroundImageFix" result="effect1_dropShadow_60_40"/>
<feBlend mode="normal" in="SourceGraphic" in2="effect1_dropShadow_60_40" result="shape"/>
</filter>
<filter id="filter2_d_60_40" x="47" y="11" width="29.9238" height="44.0333" filterUnits="userSpaceOnUse" color-interpolation-filters="sRGB">
<feFlood flood-opacity="0" result="BackgroundImageFix"/>
<feColorMatrix in="SourceAlpha" type="matrix" values="0 0 0 0 0 0 0 0 0 0 0 0 0 0 0 0 0 0 127 0" result="hardAlpha"/>
<feOffset dy="4"/>
<feGaussianBlur stdDeviation="2"/>
<feComposite in2="hardAlpha" operator="out"/>
<feColorMatrix type="matrix" values="0 0 0 0 0 0 0 0 0 0 0 0 0 0 0 0 0 0 0.25 0"/>
<feBlend mode="normal" in2="BackgroundImageFix" result="effect1_dropShadow_60_40"/>
<feBlend mode="normal" in="SourceGraphic" in2="effect1_dropShadow_60_40" result="shape"/>
</filter>
<filter id="filter3_d_60_40" x="32.4413" y="17.0735" width="14.0366" height="14.2582" filterUnits="userSpaceOnUse" color-interpolation-filters="sRGB">
<feFlood flood-opacity="0" result="BackgroundImageFix"/>
<feColorMatrix in="SourceAlpha" type="matrix" values="0 0 0 0 0 0 0 0 0 0 0 0 0 0 0 0 0 0 127 0" result="hardAlpha"/>
<feOffset dy="4"/>
<feGaussianBlur stdDeviation="2"/>
<feComposite in2="hardAlpha" operator="out"/>
<feColorMatrix type="matrix" values="0 0 0 0 0 0 0 0 0 0 0 0 0 0 0 0 0 0 0.25 0"/>
<feBlend mode="normal" in2="BackgroundImageFix" result="effect1_dropShadow_60_40"/>
<feBlend mode="normal" in="SourceGraphic" in2="effect1_dropShadow_60_40" result="shape"/>
</filter>
<filter id="filter4_d_60_40" x="29" y="20" width="36.7289" height="44.0612" filterUnits="userSpaceOnUse" color-interpolation-filters="sRGB">
<feFlood flood-opacity="0" result="BackgroundImageFix"/>
<feColorMatrix in="SourceAlpha" type="matrix" values="0 0 0 0 0 0 0 0 0 0 0 0 0 0 0 0 0 0 127 0" result="hardAlpha"/>
<feOffset dy="4"/>
<feGaussianBlur stdDeviation="2"/>
<feComposite in2="hardAlpha" operator="out"/>
<feColorMatrix type="matrix" values="0 0 0 0 0 0 0 0 0 0 0 0 0 0 0 0 0 0 0.25 0"/>
<feBlend mode="normal" in2="BackgroundImageFix" result="effect1_dropShadow_60_40"/>
<feBlend mode="normal" in="SourceGraphic" in2="effect1_dropShadow_60_40" result="shape"/>
</filter>
</defs>
</svg>
