<svg width="66" height="66" viewBox="0 0 66 66" fill="none" xmlns="http://www.w3.org/2000/svg">
<g clip-path="url(#clip0_145_324)">
<path d="M32.9 65.8C51.0702 65.8 65.8 51.0702 65.8 32.9C65.8 14.7298 51.0702 0 32.9 0C14.7298 0 -1.52588e-05 14.7298 -1.52588e-05 32.9C-1.52588e-05 51.0702 14.7298 65.8 32.9 65.8Z" fill="#E0E0E0"/>
<path d="M32.9 64.8C50.794 64.8 65.3 50.294 65.3 32.4C65.3 14.506 50.794 0 32.9 0C15.006 0 0.499985 14.506 0.499985 32.4C0.499985 50.294 15.006 64.8 32.9 64.8Z" fill="white"/>
<mask id="mask0_145_324" style="mask-type:luminance" maskUnits="userSpaceOnUse" x="11" y="10" width="44" height="45">
<path d="M53.9 28.6H33.4V37.1H45.2C44.1 42.5 39.5 45.6 33.4 45.6C26.2 45.6 20.4 39.8 20.4 32.6C20.4 25.4 26.2 19.6 33.4 19.6C36.5 19.6 39.3 20.7 41.5 22.5L47.9 16.1C44 12.7 39 10.6 33.4 10.6C21.2 10.6 11.4 20.4 11.4 32.6C11.4 44.8 21.2 54.6 33.4 54.6C44.4 54.6 54.4 46.6 54.4 32.6C54.4 31.3 54.2 29.9 53.9 28.6Z" fill="white"/>
</mask>
<g mask="url(#mask0_145_324)">
<path d="M9.40002 45.6V19.6L26.4 32.6L9.40002 45.6Z" fill="#FBBC05"/>
</g>
<mask id="mask1_145_324" style="mask-type:luminance" maskUnits="userSpaceOnUse" x="11" y="10" width="44" height="45">
<path d="M53.9 28.6H33.4V37.1H45.2C44.1 42.5 39.5 45.6 33.4 45.6C26.2 45.6 20.4 39.8 20.4 32.6C20.4 25.4 26.2 19.6 33.4 19.6C36.5 19.6 39.3 20.7 41.5 22.5L47.9 16.1C44 12.7 39 10.6 33.4 10.6C21.2 10.6 11.4 20.4 11.4 32.6C11.4 44.8 21.2 54.6 33.4 54.6C44.4 54.6 54.4 46.6 54.4 32.6C54.4 31.3 54.2 29.9 53.9 28.6Z" fill="white"/>
</mask>
<g mask="url(#mask1_145_324)">
<path d="M9.40002 19.6L26.4 32.6L33.4 26.5L57.4 22.6V8.59998H9.40002V19.6Z" fill="#EA4335"/>
</g>
<mask id="mask2_145_324" style="mask-type:luminance" maskUnits="userSpaceOnUse" x="11" y="10" width="44" height="45">
<path d="M53.9 28.6H33.4V37.1H45.2C44.1 42.5 39.5 45.6 33.4 45.6C26.2 45.6 20.4 39.8 20.4 32.6C20.4 25.4 26.2 19.6 33.4 19.6C36.5 19.6 39.3 20.7 41.5 22.5L47.9 16.1C44 12.7 39 10.6 33.4 10.6C21.2 10.6 11.4 20.4 11.4 32.6C11.4 44.8 21.2 54.6 33.4 54.6C44.4 54.6 54.4 46.6 54.4 32.6C54.4 31.3 54.2 29.9 53.9 28.6Z" fill="white"/>
</mask>
<g mask="url(#mask2_145_324)">
<path d="M9.40002 45.6L39.4 22.6L47.3 23.6L57.4 8.59998V56.6H9.40002V45.6Z" fill="#34A853"/>
</g>
<mask id="mask3_145_324" style="mask-type:luminance" maskUnits="userSpaceOnUse" x="11" y="10" width="44" height="45">
<path d="M53.9 28.6H33.4V37.1H45.2C44.1 42.5 39.5 45.6 33.4 45.6C26.2 45.6 20.4 39.8 20.4 32.6C20.4 25.4 26.2 19.6 33.4 19.6C36.5 19.6 39.3 20.7 41.5 22.5L47.9 16.1C44 12.7 39 10.6 33.4 10.6C21.2 10.6 11.4 20.4 11.4 32.6C11.4 44.8 21.2 54.6 33.4 54.6C44.4 54.6 54.4 46.6 54.4 32.6C54.4 31.3 54.2 29.9 53.9 28.6Z" fill="white"/>
</mask>
<g mask="url(#mask3_145_324)">
<path d="M57.4 56.6L26.4 32.6L22.4 29.6L57.4 19.6V56.6Z" fill="#4285F4"/>
</g>
</g>
<defs>
<clipPath id="clip0_145_324">
<rect width="65.7" height="65.8" fill="white"/>
</clipPath>
</defs>
</svg>
