<svg width="400" height="200" viewBox="0 0 377 200" fill="none" xmlns="http://www.w3.org/2000/svg">
<g style="mix-blend-mode:color-burn" filter="url(#filter0_d_57_948)">
<path fill-rule="evenodd" clip-rule="evenodd" d="M350.767 26.8393C358.101 21.6193 365.234 17.6306 371.859 15.2572C376.843 13.4654 381.281 12.5349 385.066 13.3517C387.921 13.971 389.839 15.5294 391.354 17.6313C393.429 20.4923 394.519 24.2744 394.816 28.752C395.798 43.3949 388.092 65.0212 372.563 87.8999C357.035 110.781 337.208 129.775 319.17 140.28C313.643 143.501 308.37 145.892 303.446 147.236C299.839 148.215 296.57 148.652 293.715 148.032C290.86 147.413 288.942 145.855 287.427 143.753C285.352 140.892 284.263 137.119 283.966 132.632C282.984 117.989 290.689 96.363 306.218 73.4842C316.001 59.0514 327.524 46.1781 339.231 35.9679C341.22 34.2472 340.387 31.9348 337.381 30.8136C334.392 29.7017 330.342 30.1912 328.352 31.9212C316.193 42.5174 304.218 55.8691 294.064 70.8452C274.964 99.0084 267.525 125.429 272.271 140.385C274.761 148.226 280.794 153.225 288.984 154.993C297.173 156.77 307.567 155.344 318.682 150.457C339.89 141.137 365.598 118.695 384.7 90.5221C403.801 62.3589 411.24 35.9386 406.494 20.9819C404.003 13.1411 397.97 8.14216 389.781 6.37425C383.973 5.10841 377.201 5.40587 369.841 7.40332C360.969 9.81361 350.849 14.9072 340.616 22.1907C338.349 23.8019 338.792 26.1453 341.587 27.4265C344.382 28.7076 348.483 28.432 350.75 26.8207L350.767 26.8393Z" fill="#7CAA98" fill-opacity="0.92"/>
<path fill-rule="evenodd" clip-rule="evenodd" d="M119.896 4.07C111.736 5.98083 105.785 11.0683 103.423 18.958C98.9362 33.9904 106.787 60.276 126.344 88.1329C145.9 115.99 171.972 138.009 193.327 146.981C204.52 151.686 214.936 152.933 223.096 151.032C231.255 149.121 237.206 144.024 239.568 136.144C244.055 121.112 236.204 94.8259 216.647 66.969C197.091 39.112 171.019 17.0928 149.664 8.12069C138.471 3.41542 128.055 2.16857 119.896 4.07ZM124.739 10.96C127.583 10.2941 130.86 10.6678 134.482 11.5976C139.427 12.8612 144.754 15.1647 150.316 18.2955C168.524 28.5134 188.673 47.172 204.555 69.7966C220.437 92.4212 228.493 113.918 227.765 128.573C227.541 133.064 226.498 136.864 224.485 139.749C223.005 141.875 221.096 143.465 218.268 144.131C215.423 144.797 212.147 144.423 208.525 143.493C203.58 142.23 198.269 139.926 192.69 136.795C174.483 126.577 154.334 107.919 138.452 85.2941C122.554 62.6697 114.497 41.1734 115.241 26.5175C115.465 22.0264 116.493 18.227 118.521 15.3325C120.002 13.2154 121.911 11.6257 124.739 10.96Z" fill="#7CAA98" fill-opacity="0.92"/>
<path fill-rule="evenodd" clip-rule="evenodd" d="M351.169 52.1893C318.425 86.7706 293.231 126.662 274.738 171.261C273.908 173.27 276.073 175.264 279.562 175.72C283.067 176.176 286.574 174.918 287.404 172.918C305.612 129.011 330.388 89.7375 362.616 55.6826C364.327 53.871 363.169 51.6079 360.002 50.6464C356.835 49.685 352.88 50.3684 351.169 52.1893Z" fill="#7CAA98" fill-opacity="0.92"/>
<path fill-rule="evenodd" clip-rule="evenodd" d="M147.881 52.9267C180.461 86.2473 205.771 124.851 224.641 168.139C225.504 170.125 229.047 171.325 232.528 170.812C236.008 170.3 238.141 168.261 237.278 166.275C218.112 122.301 192.358 83.095 159.254 49.247C157.513 47.4636 153.534 46.8349 150.4 47.8477C147.249 48.8607 146.128 51.1425 147.868 52.9259L147.881 52.9267Z" fill="#7CAA98" fill-opacity="0.92"/>
<path fill-rule="evenodd" clip-rule="evenodd" d="M324.131 99.5382L299.943 78.8626C297.959 77.165 293.901 76.7138 290.914 77.8745C287.91 79.0261 287.099 81.3519 289.099 83.0495L313.271 103.725C315.255 105.432 319.313 105.874 322.3 104.713C325.304 103.562 326.115 101.236 324.115 99.5384L324.131 99.5382Z" fill="#7CAA98" fill-opacity="0.92"/>
<path fill-rule="evenodd" clip-rule="evenodd" d="M197.979 100.149L221.811 79.0811C223.767 77.3513 222.918 75.039 219.913 73.9364C216.891 72.8341 212.857 73.3421 210.9 75.0719L187.068 96.1397C185.112 97.8695 185.961 100.182 188.966 101.284C191.988 102.387 196.022 101.879 197.979 100.149Z" fill="#7CAA98" fill-opacity="0.92"/>
<path fill-rule="evenodd" clip-rule="evenodd" d="M337.82 80.8349L390.471 75.0771C394.018 74.6942 396.363 72.7376 395.728 70.7216C395.076 68.6964 391.695 67.3734 388.148 67.7658L335.496 73.5236C331.966 73.9064 329.604 75.8631 330.256 77.8789C330.891 79.8949 334.289 81.2271 337.82 80.8349Z" fill="#7CAA98" fill-opacity="0.92"/>
<path fill-rule="evenodd" clip-rule="evenodd" d="M175.266 70.3073L122.528 65.4103C118.992 65.0852 115.616 66.4634 115.014 68.4894C114.411 70.5155 116.788 72.4336 120.325 72.7585L173.062 77.6556C176.599 77.9807 179.975 76.6025 180.577 74.5672C181.179 72.5411 178.803 70.623 175.266 70.298L175.266 70.3073Z" fill="#7CAA98" fill-opacity="0.92"/>
<path fill-rule="evenodd" clip-rule="evenodd" d="M152.884 155.265C131.146 154.436 109.212 155.174 88.2934 158.475C51.708 164.241 18.6239 175.716 0.168607 187.379C0.0246337 187.464 -0.103192 187.558 -0.231018 187.652C-3.69749 190.307 -4.27938 193.861 -1.7318 196.811C0.81579 199.761 6.05472 201.6 11.7766 201.553C74.46 201.144 290.434 199.38 353.647 198.864C366.875 198.756 377.545 192.456 377.483 184.791L377.383 172.487C377.361 169.805 375.235 167.289 371.589 165.642C367.959 164.005 363.245 163.428 358.749 164.052C328.147 168.27 293.139 170.409 262.483 167.856C244.291 166.337 227.578 162.962 210.201 160.561C198.647 158.961 186.66 157.568 174.5 156.568C170.994 156.28 167.71 157.695 167.18 159.739C166.65 161.774 169.06 163.664 172.583 163.952C184.341 164.918 195.925 166.267 207.109 167.815C224.858 170.268 241.957 173.687 260.536 175.24C292.738 177.92 329.481 175.729 361.608 171.303C361.624 171.303 361.64 171.293 361.656 171.293C362.346 171.195 363.07 171.282 363.635 171.538C364.199 171.785 364.524 172.173 364.527 172.583L364.627 184.887C364.656 188.435 359.713 191.354 353.589 191.404C290.376 191.92 74.4349 193.684 11.7349 194.093L11.7189 194.093C10.8992 194.1 10.1416 193.836 9.78446 193.411C9.44382 193.031 9.48833 192.575 9.87112 192.208C27.0629 181.431 57.7773 170.981 91.5669 165.648C111.12 162.564 131.609 161.912 151.917 162.687C155.454 162.826 158.544 161.264 158.817 159.212C159.089 157.161 156.423 155.385 152.885 155.246L152.884 155.265Z" fill="#7CAA98" fill-opacity="0.92"/>
<path fill-rule="evenodd" clip-rule="evenodd" d="M79.542 138.038C90.8409 141.746 98.0503 149.167 102.223 159.751C103.005 161.756 106.5 162.994 110.014 162.528C113.528 162.061 115.726 160.05 114.944 158.045C109.79 144.982 100.045 136.129 86.1006 131.558C82.9983 130.54 78.9975 131.159 77.1882 132.953C75.3788 134.738 76.4232 137.011 79.5419 138.029L79.542 138.038Z" fill="#7CAA98" fill-opacity="0.92"/>
<path fill-rule="evenodd" clip-rule="evenodd" d="M7.4069 152.655C18.7057 156.353 25.9152 163.783 30.0884 174.367C30.87 176.373 34.3649 177.611 37.8787 177.145C41.3761 176.678 43.5907 174.667 42.809 172.661C37.6548 159.598 27.9099 150.746 13.9656 146.174C10.8632 145.157 6.8624 145.776 5.05312 147.57C3.24377 149.354 4.28827 151.637 7.4069 152.655Z" fill="#7CAA98" fill-opacity="0.92"/>
<path fill-rule="evenodd" clip-rule="evenodd" d="M130.621 131.193C116.753 135.991 107.154 145.002 102.212 158.147C101.447 160.165 103.694 162.131 107.215 162.549C110.719 162.958 114.194 161.663 114.959 159.645C118.96 148.985 126.047 141.457 137.284 137.565C140.37 136.497 141.393 134.206 139.555 132.452C137.717 130.697 133.723 130.133 130.621 131.202L130.621 131.193Z" fill="#7CAA98" fill-opacity="0.92"/>
<path fill-rule="evenodd" clip-rule="evenodd" d="M58.4862 145.819C44.6185 150.617 35.0188 159.628 30.0772 172.773C29.3282 174.782 31.5589 176.757 35.0797 177.175C38.5843 177.594 42.0587 176.289 42.8239 174.271C46.8247 163.611 53.9122 156.074 65.1494 152.191C68.2348 151.123 69.2583 148.833 67.4201 147.069C65.582 145.314 61.5717 144.75 58.4862 145.819Z" fill="#7CAA98" fill-opacity="0.92"/>
</g>
<defs>
<filter id="filter0_d_57_948" x="-7.30414" y="3.21704" width="419.188" height="206.337" filterUnits="userSpaceOnUse" color-interpolation-filters="sRGB">
<feFlood flood-opacity="0" result="BackgroundImageFix"/>
<feColorMatrix in="SourceAlpha" type="matrix" values="0 0 0 0 0 0 0 0 0 0 0 0 0 0 0 0 0 0 127 0" result="hardAlpha"/>
<feOffset dy="4"/>
<feGaussianBlur stdDeviation="2"/>
<feComposite in2="hardAlpha" operator="out"/>
<feColorMatrix type="matrix" values="0 0 0 0 0 0 0 0 0 0 0 0 0 0 0 0 0 0 0.25 0"/>
<feBlend mode="normal" in2="BackgroundImageFix" result="effect1_dropShadow_57_948"/>
<feBlend mode="normal" in="SourceGraphic" in2="effect1_dropShadow_57_948" result="shape"/>
</filter>
</defs>
</svg>
