<svg width="87" height="110" viewBox="0 0 87 110" fill="none" xmlns="http://www.w3.org/2000/svg">
<g filter="url(#filter0_dd_60_84)">
<path d="M41.4034 19.1C41.5116 16.4012 39.2712 14.1201 36.3994 14.0047C33.5277 13.8892 31.6082 16.3015 31.5 19.0001C31.9962 21.8184 34 23.5001 36.0073 23.7773C38.879 23.8929 41.2948 21.7988 41.4034 19.1Z" fill="#D7B69E"/>
<path d="M42.3483 67.9719C42.6222 66.418 44.3112 54.718 45.2698 50.2391L57.5949 47.1313C57.8231 47.1313 58.2796 49.645 59.2839 53.9411C60.3794 58.1457 61.6119 63.2645 62.7988 65.1383C63.9856 67.0121 72.6132 80.0832 72.6132 80.0832L70.0569 82.0941C70.0569 82.0941 59.2382 70.5313 58.1883 69.0688C57.1384 67.6063 51.4323 56.1805 51.4323 56.1805L47.9174 68.7031L47.2327 87.3043L43.9004 87.1672C43.9916 87.0301 42.1657 69.1602 42.3483 67.9719Z" fill="#17171E"/>
<path d="M17.2418 49.5536L19.8438 87.3043L23.1305 87.2586L24.9108 58.7856L27.4214 86.9387H30.9363L33.0362 49.7821L17.2418 49.5536Z" fill="#17171E"/>
<path d="M19.6611 88.3555C19.6611 88.3555 19.6611 88.3555 19.6611 88.4469C19.6611 88.5383 19.6611 88.584 19.6611 88.6754C19.6611 88.8582 19.6155 89.0867 19.5698 89.3152C19.4329 89.9094 19.2959 90.4578 19.1133 91.0519C18.9307 91.6461 18.7025 92.2402 18.4286 92.8344C18.2004 93.2914 17.9721 93.7027 17.5613 94.0226C17.3787 94.2055 17.2874 94.4797 17.5613 94.5711C17.7895 94.6168 18.0178 94.5711 18.246 94.5254C19.1133 94.3426 19.9807 93.9312 20.711 93.3828C21.8522 92.5601 22.6739 91.3719 22.9478 90.0008C22.9934 89.7266 22.5826 89.5894 22.4913 89.8637C22.0805 91.9203 20.3458 93.4285 18.383 93.9769C18.1547 94.0226 17.9265 94.0684 17.6982 94.1141C17.6982 94.1141 17.7895 94.1598 17.7895 94.2512V94.3883C17.7895 94.3883 17.8352 94.3426 17.8808 94.2969C17.9721 94.2512 18.0178 94.1598 18.1091 94.0684C18.7938 93.2457 19.2046 92.1031 19.5242 91.0519C19.7068 90.5035 19.8437 89.9094 19.9806 89.3152C20.0263 88.9953 20.1632 88.584 20.072 88.2641C20.0263 87.9898 19.5698 88.0812 19.6155 88.4012L19.6611 88.3555Z" fill="#17171E"/>
<path d="M22.902 88.4926C23.1302 90.0465 23.3585 91.6461 23.5411 93.2L23.6323 93.8855C23.6323 94.1598 24.0888 94.0683 24.0888 93.7484C23.8606 92.1945 23.6323 90.5949 23.4498 89.041L23.3585 88.3555C23.3585 88.0812 22.902 88.1726 22.902 88.4926Z" fill="#17171E"/>
<path d="M30.7081 87.9441C30.6624 88.2183 30.7081 88.5383 30.7537 88.8125C30.845 89.3152 30.9363 89.7722 31.0732 90.275C31.3471 91.3261 31.6667 92.4687 32.2601 93.4285C32.3514 93.6113 32.4884 93.7941 32.6709 93.9312C32.7166 93.9769 32.8079 94.0683 32.8992 94.114V94.0226C32.8992 93.9769 32.9905 93.8398 32.9905 93.8855C32.9905 93.8855 32.8535 93.8855 32.9448 93.8855C32.8535 93.8855 32.7166 93.8855 32.6253 93.8855C31.8949 93.8398 31.1645 93.5199 30.5711 93.1086C29.4299 92.3773 28.7452 91.2347 28.4713 89.9093C28.4256 89.6351 27.9692 89.7265 28.0148 90.0465C28.4713 92.1488 30.1146 93.9312 32.3057 94.2968C32.534 94.2968 32.8079 94.3883 33.0361 94.2968C33.2644 94.2054 33.4013 93.9769 33.2187 93.7941C33.1274 93.657 32.9905 93.5656 32.8535 93.4742C32.7166 93.2914 32.5796 93.0629 32.4427 92.8343C32.1688 92.2859 31.9406 91.6918 31.758 91.1433C31.5754 90.5035 31.3928 89.8636 31.2558 89.2238C31.2102 88.9953 31.1645 88.7211 31.1189 88.4926C31.1189 88.4011 31.1189 88.3097 31.1189 88.264V88.1726C31.1645 87.8984 30.7537 87.7613 30.6624 88.0355L30.7081 87.9441Z" fill="#17171E"/>
<path d="M27.4213 88.0812C27.1931 89.6351 26.9648 91.2347 26.7822 92.7886C26.7822 93.0172 26.7366 93.2457 26.6909 93.4742C26.6909 93.7484 27.1018 93.8855 27.1474 93.6113C27.3756 92.0574 27.6039 90.4578 27.7865 88.9039C27.7865 88.6754 27.8321 88.4469 27.8778 88.2183C27.8778 87.9441 27.4669 87.807 27.4213 88.0812Z" fill="#17171E"/>
<path d="M43.8092 88.2641C43.8092 88.2184 43.8092 88.3098 43.8092 88.3555C43.8092 88.4012 43.8092 88.4926 43.8092 88.5383C43.8092 88.7668 43.7179 88.9496 43.6722 89.1781C43.5353 89.7266 43.3983 90.275 43.2157 90.8234C43.0332 91.4176 42.7593 92.0117 42.4854 92.6059C42.2571 93.0172 42.0289 93.4742 41.6181 93.7941C41.4355 93.9312 41.2529 94.1598 41.5268 94.3426C41.7093 94.434 41.9376 94.434 42.1658 94.434C42.9875 94.434 43.8092 94.1141 44.4939 93.657C45.6808 92.9258 46.5024 91.7375 46.9133 90.3664C47.0046 90.0922 46.5481 89.9551 46.4568 90.2293C45.909 92.1488 44.3113 93.7484 42.3028 93.9312C42.1658 93.9312 42.0745 93.9312 41.9376 93.9312C41.8919 93.9312 41.8006 93.9312 41.755 93.9312C41.755 93.9312 41.8006 93.9769 41.8463 94.0227C41.8463 94.1141 41.8006 94.1598 41.8463 94.2055C42.0289 94.1598 42.1658 93.9312 42.3028 93.7941C42.9875 92.9715 43.3983 91.8746 43.7179 90.8691C43.9005 90.3207 44.0831 89.7266 44.1744 89.1781C44.22 88.8582 44.357 88.4926 44.3113 88.1727C44.2657 87.8984 43.8092 87.9898 43.8548 88.3098L43.8092 88.2641Z" fill="#17171E"/>
<path d="M47.0044 88.4926C47.1414 90.0922 47.2783 91.6461 47.4153 93.2V93.8856C47.5066 94.1598 47.963 94.1598 47.9174 93.8856C47.7804 92.286 47.6435 90.732 47.5065 89.1781V88.4926C47.4152 88.2184 46.9588 88.2184 47.0044 88.4926Z" fill="#17171E"/>
<path d="M69.3722 83.648C69.3722 83.648 69.3722 83.648 69.3722 83.6937C69.3722 83.7394 69.4179 83.7851 69.4635 83.8766C69.5548 84.0594 69.6004 84.2422 69.6917 84.3793C69.8743 84.882 70.0569 85.3848 70.1939 85.8875C70.3765 86.4816 70.5134 87.0758 70.6047 87.6699C70.696 88.1726 70.7416 88.6754 70.6503 89.1781C70.6503 89.4066 70.3765 89.7265 70.6503 89.8637C70.8329 89.9551 71.0612 89.818 71.2438 89.6808C71.9285 89.2238 72.4306 88.4926 72.7958 87.807C73.4349 86.4816 73.4806 84.9734 73.0241 83.6023C72.9328 83.3281 72.4763 83.4195 72.5676 83.7394C73.2067 85.659 72.7958 87.9441 71.1068 89.2695C71.0155 89.3152 70.9242 89.4066 70.833 89.4523C70.833 89.4523 70.7873 89.4523 70.7417 89.4523C70.696 89.4523 70.7416 89.4523 70.8786 89.498C70.9699 89.5894 70.8786 89.6808 70.9243 89.6351C70.9243 89.5894 70.9699 89.498 71.0155 89.4066C71.0612 89.1781 71.1068 88.9953 71.1068 88.7668C71.1068 87.7156 70.8786 86.6644 70.559 85.659C70.4221 85.1562 70.2395 84.6535 70.0113 84.1508C69.92 83.8765 69.783 83.5109 69.5548 83.2824C69.3266 83.0539 69.007 83.3738 69.2353 83.6023L69.3722 83.648Z" fill="#17171E"/>
<path d="M72.2023 82.0484C73.2066 83.2824 74.2109 84.5164 75.2151 85.7047C75.3521 85.8875 75.489 86.0703 75.626 86.2074C75.8086 86.4359 76.1281 86.116 75.9455 85.8875C74.9413 84.6535 73.937 83.4195 72.9327 82.2312C72.7958 82.0484 72.6588 81.8656 72.5219 81.7285C72.3393 81.5 72.0198 81.8199 72.2023 82.0484Z" fill="#17171E"/>
<path d="M35.5467 23.9598C35.5467 23.9598 39.4269 29.1242 41.5723 30.2668C43.1244 31.0895 51.0216 33.009 51.0216 33.009C51.0216 33.009 48.6478 38.9047 48.374 39.6817C48.1457 40.4129 39.1073 35.0656 38.2856 34.4258C36.2315 32.8262 31.7123 28.5301 31.7123 28.5301L35.5924 23.9141L35.5467 23.9598Z" fill="#7CAA98"/>
<path d="M17.5372 10.0112C17.7008 9.99202 18.3338 9.77637 17.9355 9.42741C17.3338 7.53093 16.0258 7.11811 15.5403 7.11121C14.9555 7.12868 14.9354 8.07543 15.5403 8.71995C15.0084 8.09364 14.3024 7.96716 13.5805 7.6819C13.3282 7.59668 13.2628 7.45647 13 7.5C12.8398 7.05621 11.6499 7.25294 11.5 7.50003C10.7049 8.89382 11.396 11.3935 12.2961 12.6652" fill="#D7B69E"/>
<path d="M51.4779 33.786C52.117 34.1059 52.893 34.5629 53.3038 35.1571C53.3951 35.2485 53.4864 35.477 53.3951 35.6141C53.3038 35.7512 53.0756 35.7055 52.9387 35.6598C52.6191 35.6141 52.3452 35.477 52.0713 35.3399C51.8431 35.2028 51.6149 35.5227 51.7975 35.7055C52.117 36.0711 52.3909 36.4825 52.7104 36.8938C53.1669 37.5336 53.669 38.3106 53.7147 39.0876C53.7603 39.7731 53.2126 39.9102 52.6648 39.9559C51.8888 40.0016 51.0671 39.8645 50.2911 39.7274C49.7889 39.636 49.2868 39.4989 48.7847 39.3618C48.5108 39.2704 48.3738 39.7274 48.6477 39.8188C49.9259 40.1844 51.341 40.5043 52.6648 40.4129C53.3039 40.3672 54.0342 40.1844 54.1255 39.4532C54.2625 38.6305 53.7147 37.7622 53.3038 37.1223C52.9387 36.5282 52.5278 35.9797 52.0713 35.477L51.7975 35.8426C52.1626 36.0254 52.5735 36.2083 52.9843 36.254C53.4864 36.2997 53.9429 35.9797 53.806 35.3856C53.669 34.7915 53.1213 34.4258 52.7104 34.1059C52.3909 33.8774 52.0257 33.6489 51.6605 33.4661C51.3866 33.329 51.1584 33.7403 51.4323 33.8774L51.4779 33.786Z" fill="#17171E"/>
<path d="M50.8846 37.2594C51.0672 37.4422 51.2954 37.625 51.478 37.7622C51.7063 37.8993 51.9345 38.0364 52.1628 38.1735C52.391 38.3106 52.6193 38.402 52.8931 38.5391C53.167 38.6762 53.3953 38.7676 53.6691 38.8133C53.8974 38.859 54.0344 38.5391 53.8061 38.4477C53.5779 38.3563 53.304 38.2649 53.0757 38.1735C52.8475 38.0821 52.5736 37.945 52.3454 37.8536C52.1171 37.7622 51.8889 37.625 51.6606 37.4879C51.4324 37.3508 51.2042 37.2137 50.9759 37.1223C50.8846 37.1223 50.839 37.2137 50.8846 37.3051V37.2594Z" fill="#17171E"/>
<path d="M50.0173 38.8133C51.0215 39.5903 52.2997 40.0016 53.5322 40.0473C53.8061 40.0473 53.8061 39.5903 53.5322 39.5903C52.2997 39.5446 51.2041 39.179 50.1086 38.6305C50.0173 38.5848 49.8803 38.7219 49.9716 38.8133H50.0173Z" fill="#17171E"/>
<g filter="url(#filter1_d_60_84)">
<path d="M34.3142 46.0801C34.3142 46.2172 32.8535 58.7399 32.5339 58.8313C32.2144 58.9227 16.1005 51.1075 14.9593 50.4219C13.8181 49.7364 12.1747 48.8223 12.5856 46.1258C12.9964 43.4293 27.0105 23.9141 27.0105 23.9141C28.3343 22.1774 29.7494 21.1262 32.0318 21.9489C34.3142 22.7715 35.8206 23.6856 35.9576 25.1481C36.0945 26.5192 35.5924 31.6379 35.2728 35.477C34.9533 39.1789 34.3142 46.1258 34.3142 46.1258V46.0801Z" fill="#7CAA98"/>
</g>
<path d="M31.0732 21.629C31.0732 21.629 25.778 18.9325 24.7281 17.6985C22.6282 15.2305 19.2046 8.69501 19.2046 8.69501C19.2046 8.69501 11.7639 12.2141 11.1248 12.6712C10.4857 13.1282 20.0263 21.8118 20.8479 22.4973C24.4998 25.468 26.7822 27.2505 26.7822 27.2505L31.0732 21.5833V21.629Z" fill="#7CAA98"/>
<path d="M18.2545 9.29655C18.0719 8.97662 17.3331 8.14656 17.0592 7.87234C16.7396 7.50671 16.2832 7.04968 15.781 7.00398C15.2789 6.95828 14.9137 7.3239 15.005 7.82664C15.0506 8.19226 15.2332 8.55788 15.4615 8.8321L15.781 8.51218C15.3702 8.23796 14.9137 7.96374 14.4572 7.73523C13.7725 7.3696 12.9965 7.00398 12.1748 7.04968C10.4858 7.09538 11.0336 9.38054 11.3075 10.386C11.4444 10.9344 11.627 11.6698 11.8096 12.1725C11.9009 12.4467 12.3574 12.3096 12.2661 12.0354C11.8553 11.0299 11.5357 9.70046 11.4444 8.64929C11.4444 8.14656 11.4444 7.55242 12.0379 7.46101C12.7226 7.3696 13.4986 7.73523 14.1377 8.05515C14.5942 8.28367 15.0963 8.55788 15.5071 8.8321C15.6897 8.96921 15.9636 8.69499 15.8267 8.51218C15.6897 8.28367 15.5528 8.05515 15.4615 7.78093C15.4615 7.64382 15.3702 7.46101 15.4615 7.36961C15.5984 7.2782 15.781 7.36961 15.918 7.36961C16.5114 7.64382 16.9679 8.28367 17.3331 8.7864C17.5157 9.01492 18.1369 9.72852 18 9.5L18.2545 9.29655Z" fill="#17171E"/>
<path d="M14.2289 9.74615C14.1376 9.56334 13.955 9.38053 13.818 9.19772C13.6811 9.0149 13.5442 8.83209 13.4072 8.60357C13.2703 8.37506 13.179 8.23795 13.042 8.00944C12.9051 7.78092 12.8138 7.59811 12.7225 7.36959C12.6312 7.18678 12.266 7.32389 12.3573 7.5067C12.4486 7.68951 12.5855 7.96373 12.6768 8.14654C12.7681 8.32936 12.9051 8.55787 13.0877 8.74069C13.2703 8.9235 13.3616 9.10631 13.5442 9.28912C13.7268 9.47193 13.8637 9.65474 14.0919 9.79185C14.1832 9.83756 14.2745 9.74615 14.2289 9.65475V9.74615Z" fill="#17171E"/>
<path d="M12.8139 10.6145C12.2661 9.70046 11.8096 8.7864 11.6727 7.73523C11.6727 7.59812 11.5814 7.50671 11.4444 7.50671C11.3075 7.50671 11.2162 7.59812 11.2162 7.73523C11.3531 8.8321 11.8553 9.97468 12.6313 10.7516C12.7226 10.843 12.8595 10.7516 12.8139 10.6145Z" fill="#17171E"/>
<g filter="url(#filter2_d_60_84)">
<path d="M57.96 45.943C56.6818 35.934 55.1298 32.4149 53.5778 29.3528C52.254 26.7477 50.9301 25.5594 49.3324 25.1938C47.3696 24.7368 45.498 25.6965 44.1285 26.3364C42.5765 27.0676 38.4225 29.8555 35.8205 30.1754C34.4967 30.3126 26.2344 29.5356 25.8235 29.4899C25.4127 29.4442 24.1345 36.1625 24.1345 36.1625C24.1345 36.1625 33.9489 37.3051 35.6379 37.2594C37.7834 37.168 42.4852 35.8426 42.4852 35.8426C42.8504 36.711 43.4438 39.3161 43.9003 42.8809C45.0415 51.016 45.0415 51.5645 45.0415 51.5645C45.0415 51.5645 57.7317 52.1129 58.9186 52.0215C58.9186 52.0215 58.5991 50.6961 58.0056 45.943H57.96Z" fill="#0077B6"/>
</g>
<path d="M50.8904 21.0883C50.9986 18.3895 48.7582 16.1085 45.8865 15.993C43.0147 15.8775 40.599 17.9715 40.4908 20.6701C40.3826 23.3689 42.6226 25.6499 45.4943 25.7656C48.3661 25.8812 50.7818 23.7871 50.8904 21.0883Z" fill="#FFD5BA"/>
<path d="M46 16.0001C46.4565 16.0001 46.8586 15.7642 47 16.0001C47.0913 13.852 48.9673 12.4426 51.0671 12.534C53.1213 12.6254 54.7646 14.4079 54.6733 16.5102C54.5821 18.6126 53.167 20.0915 51.0671 20.0001C51.1128 20.32 51 20.5 51 21C51 21.9489 50.5478 23.2688 50 24.0001C50 24.0001 48.6478 23.8227 45.5893 21.9489C42.5309 20.0751 41.5266 17.7899 41.5266 17.7899C41.5266 17.0001 44.311 15.9087 46 16.0001Z" fill="#8B4513"/>
<path d="M47.0006 15.8652C49.5 17.5 50 18 50.4999 19.3109C50.5 21 53.5 20 54.1364 18.4879C55.242 17.1667 54.8374 15.4283 53.9998 14C52.8632 13 52.0744 12.2501 50.4998 12.5C48.6907 12.7857 47.1346 13.9013 47.0341 15.8295C47.0341 16.0437 47.3691 16.0437 47.3691 15.8295C47.4361 14.2584 48.7427 13.4285 50.1832 13C51.6238 12.5715 52.5283 12.7502 53.4998 14C54.4714 15.2497 54.804 16.7145 54 18C52.2786 20.7522 50.4999 19.3109 51 20C50 18.8034 49 17 47.3691 15.8652C47.3691 15.6509 47.0341 15.6509 47.0341 15.8652H47.0006Z" fill="#17171E"/>
<path d="M21.1219 34.8828C19.7981 34.8828 18.7482 34.8828 18.7482 33.009V29.1699C18.7482 27.3418 19.8894 27.4332 21.2132 27.4332C22.537 27.4332 23.4956 27.3418 23.4956 29.1699V33.009C23.4956 34.8371 22.4 34.8828 21.1219 34.8828Z" fill="#17171E"/>
<path d="M25.1389 30.1297C25.2302 29.9926 25.002 29.8555 24.8194 29.8098C23.7694 29.7184 22.4913 29.627 22.1718 29.9926C21.8066 30.4497 22.5369 31.1352 23.1304 31.0438C22.3087 31.0438 21.487 31.2723 20.8023 31.6379C20.5741 31.775 20.3458 31.9122 20.2089 32.1407C20.0719 32.4149 20.1176 32.7805 20.2089 33.0547C20.7566 34.5629 22.2174 35.7055 23.7694 35.8426" fill="#FFD5BA"/>
<path d="M25.2302 30.2212C25.5497 29.6727 24.4998 29.6727 24.2259 29.627C23.6325 29.5813 22.9934 29.4899 22.4457 29.627C22.0348 29.7641 21.7609 30.1297 21.9435 30.5411C22.1261 30.9981 22.6739 31.318 23.1304 31.2723C23.4043 31.2723 23.4043 30.8153 23.1304 30.8153C22.2174 30.8153 21.3044 31.0438 20.4828 31.5008C20.1632 31.6836 19.8893 32.0036 19.8437 32.3692C19.798 32.7348 19.9806 33.1462 20.1176 33.5118C20.8023 34.9286 22.2174 35.8883 23.7238 36.0711C24.0434 36.0711 24.0434 35.6141 23.7238 35.5684C22.4457 35.4313 21.3044 34.7001 20.6654 33.6032C20.4828 33.329 20.3458 33.009 20.3002 32.7348C20.2089 32.3235 20.4371 32.0493 20.8023 31.8665C21.487 31.5008 22.3087 31.318 23.0847 31.2723V30.8153C22.8108 30.8153 22.4457 30.7239 22.3087 30.4497C22.1261 30.1297 22.4457 30.0383 22.7195 29.9926C22.9478 29.9926 25.002 29.9469 25.002 30.084C25.002 30.2212 25.1846 30.3126 25.2302 30.1754V30.2212Z" fill="#17171E"/>
<path d="M22.9933 33.8774C22.5825 33.5575 22.1717 33.2832 21.7152 33.1004C21.4869 33.009 21.2587 32.9176 21.0305 32.8719C20.8935 32.8719 20.8022 32.8262 20.6653 32.7805C20.5283 32.7348 20.3914 32.7348 20.2544 32.7348C20.0262 32.7348 19.9805 33.0547 20.2088 33.1461C20.3001 33.1461 20.437 33.1461 20.574 33.1918C20.7109 33.2375 20.8022 33.1918 20.9391 33.2375C21.1674 33.2832 21.3956 33.3289 21.5782 33.4203C22.0347 33.6032 22.4456 33.786 22.8564 34.0145C22.9477 34.0602 23.0846 33.9231 22.9933 33.8317V33.8774Z" fill="#17171E"/>
<path d="M23.2216 32.1406C23.176 32.1406 23.176 32.0492 23.1303 32.0035C23.0847 32.0035 22.9934 31.9578 22.9477 31.9578C22.8108 31.9578 22.7195 31.9121 22.5826 31.9121C22.3087 31.9121 22.0348 31.8664 21.7609 31.8664C21.2131 31.8664 20.6653 32.0035 20.1632 32.1863C20.0719 32.232 19.9806 32.3235 19.9806 32.4606C19.9806 32.552 20.1632 32.6434 20.2545 32.6434C20.711 32.4606 21.2131 32.3235 21.7152 32.2777C21.9435 32.2777 22.2174 32.2777 22.4456 32.2777C22.5826 32.2777 22.6739 32.2778 22.8108 32.3235C22.8564 32.3235 22.9477 32.3235 22.9934 32.3235C23.039 32.3235 23.0847 32.2777 23.1303 32.2777C23.2216 32.2777 23.2216 32.1863 23.1303 32.1406H23.2216Z" fill="#17171E"/>
<path d="M25.9606 37.0309C27.5583 37.2594 29.2473 37.2137 30.8906 37.3051C31.7123 37.3051 32.5339 37.3965 33.3556 37.3965C33.9947 37.3965 34.7707 37.4879 35.3641 37.168C35.5011 37.1223 35.3641 36.9395 35.2728 36.9395C34.862 36.9852 34.4968 37.0766 34.086 37.1223C33.7208 37.1223 33.3556 37.1223 32.9904 37.1223C32.2144 37.1223 31.4384 37.0766 30.6624 37.0309C29.1103 36.9852 27.5126 36.8024 25.9606 36.8938C25.8693 36.8938 25.8693 37.0309 25.9606 37.0766V37.0309Z" fill="#17171E"/>
<path d="M27.6039 30.1297C30.2059 30.6782 32.8991 30.541 35.5468 30.3582C36.688 30.2668 37.8292 30.1297 38.9247 29.8555C39.929 29.5813 41.2528 29.2157 42.0288 28.4844C42.1658 28.3473 42.0288 28.1645 41.8462 28.2102C41.2985 28.4387 40.7963 28.8043 40.2485 29.0328C39.7464 29.2157 39.2443 29.3985 38.7421 29.5356C37.6009 29.8098 36.4141 29.9469 35.2729 30.0383C32.7622 30.2211 30.1602 30.4039 27.6952 29.9469C27.5583 29.9469 27.5126 30.1297 27.6496 30.1297H27.6039Z" fill="#17171E"/>
<path d="M42.3972 14.6135C43.3964 12.8595 42.7082 10.4755 41 9.5C39.2918 8.52456 37.2106 9.32702 36.2114 11.0811C35.2121 12.8351 35.7868 15.0478 37.495 16.0232C39.2032 16.9987 41.3979 16.3675 42.3972 14.6135Z" fill="#3B3024"/>
<path d="M40.2029 20.6692C40.1572 22.8629 41.5723 24.8282 43.6265 25.6051C45.6807 26.3821 48.2826 25.8793 49.789 24.1883C51.2954 22.4973 51.5237 20.1664 50.3825 18.3383C49.2412 16.5102 46.9132 15.459 44.7677 15.779C42.3027 16.1446 40.3855 18.1555 40.2485 20.6235C40.2485 20.8977 40.705 20.8977 40.705 20.6235C40.7963 18.6125 42.257 16.9215 44.2199 16.3731C46.1828 15.8247 48.3739 16.4645 49.6977 18.0641C51.0215 19.6637 51.0215 21.7661 49.926 23.4114C48.7391 25.1024 46.548 25.8793 44.5395 25.4223C42.3027 24.9196 40.6593 23 40.705 20.6692C40.705 20.395 40.2485 20.395 40.2485 20.6692H40.2029Z" fill="#17171E"/>
<path d="M38.2897 16.9065C38.2897 16.9065 39.8417 20.6109 40.5471 22.0001C40.5471 22.0001 44.5496 18.1119 39 14.5C35.3316 12.1384 31.0941 14.4059 31 18.203C31 18.203 33.2104 19.3144 38.2897 16.9065Z" fill="#3B3024"/>
<path d="M35.5606 13.7416C36.5187 13.2812 39.9198 13.7018 40.5187 15.2813C41.1175 16.8607 42.7408 15.2504 42.7999 13.6109C43.3654 11.9837 42.7336 10.5552 41.4442 9.51653C40.027 8.98433 39.0235 8.56271 37.6398 9.35455C36.0494 10.2629 34.9898 11.8577 35.5793 13.6963C35.6552 13.8966 35.9685 13.7779 35.8925 13.5775C35.3983 12.0847 36.3258 10.8456 37.521 9.93429C38.7161 9.02301 39.6252 8.86952 40.9767 9.69375C42.3281 10.518 42.8149 11.7943 42.5187 13.2812C41.8846 16.4649 40.3067 14.8141 41.0187 15.2813C39.0187 13.7416 38.0187 13.2812 35.9052 13.6109C35.8292 13.4106 35.8166 13.3772 35.8925 13.5775L35.5606 13.7416Z" fill="#17171E"/>
<path d="M40.9333 21.0348C39.8834 22.863 37.738 23.6856 35.6838 23.2286C33.6296 22.7715 32.0319 21.2176 31.6211 19.2067C31.2102 17.1958 32.1688 15.1848 33.9491 14.2708C35.8207 13.2653 38.1944 13.6766 39.7921 15.0477C41.4811 16.5559 42.0746 19.0239 40.9333 21.0348C40.7964 21.3091 41.1616 21.5376 41.3442 21.2634C42.4397 19.2981 42.0746 16.9216 40.6595 15.2305C39.2444 13.5395 36.688 12.7626 34.4969 13.4938C32.3058 14.2251 30.982 16.236 31.0733 18.4755C31.1646 20.7149 32.7623 22.6801 34.8164 23.4571C37.1902 24.3255 39.9747 23.4571 41.2985 21.2634C41.4355 20.9891 41.0703 20.7606 40.8877 21.0348H40.9333Z" fill="#17171E"/>
</g>
<defs>
<filter id="filter0_dd_60_84" x="0" y="0.00012207" width="87" height="109.59" filterUnits="userSpaceOnUse" color-interpolation-filters="sRGB">
<feFlood flood-opacity="0" result="BackgroundImageFix"/>
<feColorMatrix in="SourceAlpha" type="matrix" values="0 0 0 0 0 0 0 0 0 0 0 0 0 0 0 0 0 0 127 0" result="hardAlpha"/>
<feOffset dy="1"/>
<feGaussianBlur stdDeviation="1.5"/>
<feColorMatrix type="matrix" values="0 0 0 0 0 0 0 0 0 0 0 0 0 0 0 0 0 0 0.3 0"/>
<feBlend mode="normal" in2="BackgroundImageFix" result="effect1_dropShadow_60_84"/>
<feColorMatrix in="SourceAlpha" type="matrix" values="0 0 0 0 0 0 0 0 0 0 0 0 0 0 0 0 0 0 127 0" result="hardAlpha"/>
<feMorphology radius="3" operator="dilate" in="SourceAlpha" result="effect2_dropShadow_60_84"/>
<feOffset dy="4"/>
<feGaussianBlur stdDeviation="4"/>
<feColorMatrix type="matrix" values="0 0 0 0 0 0 0 0 0 0 0 0 0 0 0 0 0 0 0.15 0"/>
<feBlend mode="normal" in2="effect1_dropShadow_60_84" result="effect2_dropShadow_60_84"/>
<feBlend mode="normal" in="SourceGraphic" in2="effect2_dropShadow_60_84" result="shape"/>
</filter>
<filter id="filter1_d_60_84" x="8.52112" y="21.6639" width="31.4596" height="45.1682" filterUnits="userSpaceOnUse" color-interpolation-filters="sRGB">
<feFlood flood-opacity="0" result="BackgroundImageFix"/>
<feColorMatrix in="SourceAlpha" type="matrix" values="0 0 0 0 0 0 0 0 0 0 0 0 0 0 0 0 0 0 127 0" result="hardAlpha"/>
<feOffset dy="4"/>
<feGaussianBlur stdDeviation="2"/>
<feComposite in2="hardAlpha" operator="out"/>
<feColorMatrix type="matrix" values="0 0 0 0 0 0 0 0 0 0 0 0 0 0 0 0 0 0 0.25 0"/>
<feBlend mode="normal" in2="BackgroundImageFix" result="effect1_dropShadow_60_84"/>
<feBlend mode="normal" in="SourceGraphic" in2="effect1_dropShadow_60_84" result="shape"/>
</filter>
<filter id="filter2_d_60_84" x="20.1345" y="25.0746" width="42.7841" height="34.9572" filterUnits="userSpaceOnUse" color-interpolation-filters="sRGB">
<feFlood flood-opacity="0" result="BackgroundImageFix"/>
<feColorMatrix in="SourceAlpha" type="matrix" values="0 0 0 0 0 0 0 0 0 0 0 0 0 0 0 0 0 0 127 0" result="hardAlpha"/>
<feOffset dy="4"/>
<feGaussianBlur stdDeviation="2"/>
<feComposite in2="hardAlpha" operator="out"/>
<feColorMatrix type="matrix" values="0 0 0 0 0 0 0 0 0 0 0 0 0 0 0 0 0 0 0.25 0"/>
<feBlend mode="normal" in2="BackgroundImageFix" result="effect1_dropShadow_60_84"/>
<feBlend mode="normal" in="SourceGraphic" in2="effect1_dropShadow_60_84" result="shape"/>
</filter>
</defs>
</svg>
