<svg width="57" height="88" viewBox="0 0 57 88" fill="none" xmlns="http://www.w3.org/2000/svg">
<g filter="url(#filter0_d_65_1088)">
<path d="M8.63666 44.7483C8.03008 45 6.40774 45.1457 5.52996 45.5431C5.20079 45.6921 4.64471 45.8908 5.13846 46.0895C5.46763 46.2385 6.0888 45.9901 6.41797 45.9901C6.96659 45.9901 7.5152 46.0398 8.06382 46.0398C9.10618 46.0398 10.1486 46.0398 11.1909 45.8908C11.3007 45.8908 11.4751 45.9503 11.53 46C11.5848 46.0993 11.9041 45.9901 11.8493 46.0895C11.8493 46.3378 11.7782 46.081 11.8493 46.7961C11.9203 47.5113 12.6349 47.7803 13.6597 47.4803C15.1958 47.2816 16.7868 46.0895 17.5 44.8974C17.6646 44.5993 17.2257 44.351 17.0063 44.649C16.1833 45.6424 16.9015 43.202 15.53 43.5C15.0911 43.5993 14.3292 44.3477 14.0001 44C13.6597 44 13.4452 44.3477 13.5001 44C14.0001 44 12.8841 44 12.5001 44C11.7869 44 12.2132 43.9503 11.5 44C10.7868 44.0497 11.7132 44 11 44C10.616 44 10.884 44 10.5 44C10.116 44 5.86935 45.5431 5.81449 45.5431C5.70477 45.5431 5.59505 45.5431 5.81449 45.4437C5.92421 45.4437 5.97908 45.3941 6.0888 45.3444C6.802 45.0961 7.39109 45.4934 8.15915 45.3444C8.32374 45.3444 8.74638 44.7483 8.63666 44.7483Z" fill="#773A3A"/>
<path d="M7.78331 44.8918C6.85066 44.9911 5.86316 45.1113 4.98538 45.5087C4.65622 45.6577 4.27217 46.1047 4.76592 46.3034C5.09509 46.4524 5.58885 46.4028 5.91802 46.4028C6.46663 46.4028 7.01525 46.4524 7.56386 46.4524C8.60622 46.4524 9.64861 46.4524 10.691 46.3034C10.8007 46.3034 11.3493 46.1544 11.4042 46.2041C11.459 46.3034 11.4042 46.4028 11.3493 46.5021C11.3493 46.7505 11.3493 46.9988 11.459 47.1975C11.7882 47.7935 12.5014 47.9922 13.1597 47.8929C14.6959 47.6942 16.2869 46.5021 17 45.31C17.1646 45.012 16.7257 44.7636 16.5063 45.0616C15.6834 46.055 14.6959 47.0982 13.3243 47.3962C12.8854 47.4955 12.3917 47.4955 12.0625 47.1478C11.7882 46.8498 11.9528 46.6511 12.0076 46.3034C12.0625 45.9557 11.7882 45.757 11.4042 45.757C10.691 45.757 9.86804 45.906 9.15484 45.9557C8.44165 46.0054 7.67358 45.9557 6.96038 45.9557C6.57635 45.9557 6.19233 45.9557 5.80831 45.9557C5.75344 45.9557 5.25969 45.9557 5.20483 45.9557C5.0951 45.9557 5.09509 45.9557 5.31454 45.8564C5.42426 45.8564 5.47912 45.8067 5.58885 45.757C6.30204 45.5087 7.01525 45.31 7.78331 45.161C11 44.1643 9 44.1435 7.78331 44.8918Z" fill="#17171E"/>
<path d="M47.7517 44.9669C48.4649 45.1159 49.1232 45.2152 49.8364 45.3642C50.1656 45.4636 50.5496 45.5133 50.8788 45.6126C51.0982 45.6126 50.2132 45.2128 50.2132 45.4579C49.4083 45.1656 48.7807 44.9364 48.2807 44.6185C47.3577 44.0318 47 44 47.0385 43.5C46.2704 43.5 47.4139 42.6709 46.9139 42.6709H46.6196C46.6196 42.6709 46.1196 42.8975 45.9961 42.6709C45.6196 42.8179 45.6544 42.7682 45.4349 42.8179C45.1058 42.8676 45.1389 42.8179 44.8097 42.8179C44.2062 42.7185 44.4865 42.8179 43.9663 43.1028C43.4177 42.9538 43.0886 43.1159 42.5399 42.8179C41.9913 42.5198 41.1134 44.3512 40.6196 44.1028C40.3453 43.9538 40.4002 45.5629 40.6197 45.7616C41.278 46.4074 42.2655 46.8544 43.1433 47.1524C44.0211 47.4505 45.0086 47.7485 45.9961 47.8975C46.7093 47.9969 47.5871 47.8975 47.8614 47.2021C48.1357 46.6557 47.6968 46.0597 47.0385 46.0597C46.7093 46.0597 47.6708 46.4503 48 46.5C49.0972 46.5993 49.2329 46.7054 50.3302 46.7054C50.8239 46.7054 52.0309 46.9041 52.3052 46.308C52.5795 45.6623 51.5371 45.5133 51.0982 45.4139C50.001 45.1656 48.9586 44.9669 47.8614 44.8179C47.642 44.8179 47.5322 45.1159 47.7517 45.1656V44.9669Z" fill="#733939"/>
<path d="M48 44.4846C49 45 49.1253 45.0641 49.4544 45.1635C49.7836 45.2628 50.5673 45.5336 50.8965 45.6329C51.1159 45.6329 52.4056 45.9959 51.7472 46.2442C51.4729 46.3436 50.7786 46.2288 50.5043 46.2288C50.1203 46.2288 49.7444 46.1296 49.4152 46.1296C48.6471 46.1296 47.8791 46.0303 47.111 45.9806V46.4773C47.495 46.4773 47.4951 46.9244 47.2756 47.1231C47.1659 47.2721 47.0013 47.3218 46.7819 47.3714C46.4527 47.4211 46.1235 47.3714 45.7943 47.3714C45.1909 47.2721 44.6422 47.1231 44.0936 46.9741C43.545 46.825 42.9964 46.5767 42.4478 46.2787C41.8992 45.9806 41.4603 45.6329 40.9665 45.3846C40.6922 45.2356 40.4179 45.5833 40.6374 45.7819C41.2957 46.4277 42.2832 46.8747 43.161 47.1728C44.0388 47.4708 45.0263 47.7688 46.0138 47.9178C46.727 48.0172 47.6048 47.9178 47.8791 47.2224C48.1534 46.676 47.7145 46.08 47.0562 46.08C46.727 46.08 46.727 46.527 47.0562 46.5767C48.1534 46.676 49.2506 46.7257 50.3479 46.7257C50.8416 46.7257 52.0485 46.9244 52.3229 46.3283C52.5972 45.6826 51.5685 45.4839 51.1296 45.3846C50.0324 45.1362 48.3728 44.1336 47.2756 43.9846C47.0562 43.9846 47.0562 44.2029 47.2756 44.2525L48 44.4846Z" fill="#17171E"/>
<path d="M19.9547 71.8748C20.5033 73.514 21.0519 75.1531 21.6005 76.842C21.7102 77.2393 21.82 77.6864 21.9846 78.0341C22.0394 78.1334 21.9845 78.3321 22.1491 78.1334C22.2589 77.8851 22.204 78.0341 22.0943 78.0341C21.82 78.0341 21.5457 78.0341 21.2714 78.0341C20.8325 78.0341 20.4484 78.0341 20.0095 78.0341C18.9123 78.0341 17.7602 77.9347 16.663 77.8851C14.5782 77.7857 12.4935 77.6864 10.4636 77.4877C10.2991 77.4877 9.96988 77.3884 9.80529 77.3884C9.96988 77.4877 9.8053 77.438 9.96989 77.3884C10.2991 77.1897 10.5185 76.991 10.9025 76.842C11.7254 76.5439 12.6581 76.6433 13.481 76.3949C14.2491 76.1466 14.9074 75.7989 15.5657 75.4512C15.9498 75.2028 16.6081 74.8551 16.8824 74.4577C17.1019 74.11 16.9921 73.663 16.9373 73.3153C16.8824 72.7192 16.7179 72.1232 16.6081 71.5271C16.4984 71.1794 16.4435 70.633 16.1692 70.335C15.9498 70.0867 15.5109 70.335 15.6755 70.5834C15.9498 70.8814 15.9498 71.4278 16.0595 71.7755C16.2241 72.3716 16.3338 72.9676 16.3887 73.5637C16.3887 74.0604 16.3887 74.2094 16.0047 74.5074C15.4012 75.0041 14.688 75.4015 13.9199 75.6995C13.5359 75.8485 13.097 75.9975 12.6581 76.0969C12.1643 76.1962 11.6706 76.1466 11.1768 76.2459C10.5734 76.3949 9.86017 76.6433 9.47614 77.14C9.03724 77.6864 9.47614 77.8851 10.0248 77.9844C12.1095 78.2328 14.1942 78.3321 16.279 78.4314C17.4859 78.4811 18.6929 78.5308 19.8998 78.5805C20.613 78.5805 21.3811 78.6798 22.0943 78.5805C22.8075 78.4811 22.4783 77.8851 22.3137 77.438C21.7102 75.6002 21.1068 73.7127 20.5033 71.8748C20.3936 71.5768 19.8998 71.7258 19.9547 72.0239V71.8748Z" fill="#17171E"/>
<g filter="url(#filter1_d_65_1088)">
<path d="M18.9671 19.9683C16.9921 23.0479 15.6206 26.4752 13.7553 31.2933C11.3414 37.7506 10.4636 40.8302 9.09204 44.4066H17.4858L20.0095 39.9858L37.7846 40.1348L39.8693 44.3569L47.6597 44.2079C47.6597 44.2576 46.6173 41.1779 45.6298 38.0983C44.8617 35.8134 43.0513 31.343 42.393 29.6045C40.1985 23.3956 37.7846 19.3722 35.645 16.9383C33.8894 14.9018 32.2984 12.9646 28.513 12.9646C25.8248 12.9646 23.4109 14.6534 21.8748 16.1932C21.8748 16.1932 19.9546 18.4781 18.9122 20.0179L18.9671 19.9683Z" fill="#9DCDF4"/>
</g>
<path d="M34.9999 6.99997C34.9999 9.48525 32.974 13 29.658 13C25.9999 13 23.158 9.9829 23.158 7.49762C23.158 5.01234 24.158 5.02961 26.9999 4.99997C31.4999 6.99997 34.9999 4.51469 34.9999 6.99997Z" fill="#773A3A"/>
<path d="M22.9999 8C22.9999 6.13604 22.4999 3.5 28.5077 2.2677C33.5077 -1.7323 38.4999 2 34.4999 5.5C31.9999 5.5 33.9999 7.5 29.9999 8.5C22.9999 2 22.9999 9.86396 22.9999 8Z" fill="#E6BE8A"/>
<path d="M15.1267 74.0108C14.3587 74.2591 13.4809 74.5075 12.658 74.5075C12.5483 74.5075 12.3837 74.5075 12.2739 74.5075H12.1642H12.0545C12.0545 74.5075 12.0545 74.5075 11.9996 74.5075C11.9448 74.4578 12.0545 74.5075 11.9996 74.5075C11.9996 74.5075 11.9996 74.5075 11.9996 74.4578C11.9996 74.3584 11.9996 74.2094 11.9996 74.1101C11.9996 74.1101 11.9996 74.1101 11.9996 74.0108L12.0545 73.9114C12.1094 73.8121 12.1642 73.8121 12.2739 73.7624H12.3288C12.3837 73.7624 12.4385 73.7624 12.4934 73.7624C12.8774 73.7624 13.2615 73.8617 13.5906 73.9611C14.1392 74.1598 14.633 74.4578 15.1267 74.7558C15.4011 74.9545 15.6754 74.5075 15.4011 74.3088C14.633 73.8121 13.6455 73.2657 12.658 73.2657C11.9996 73.2657 11.451 73.5637 11.3413 74.1598C11.3413 74.4081 11.3413 74.7061 11.5059 74.9545C11.6705 75.1532 11.8899 75.2525 12.1642 75.3022C12.7677 75.4015 13.4809 75.3022 14.0844 75.1532C14.5233 75.0538 14.9622 74.9545 15.3462 74.8055C15.6754 74.7061 15.5108 74.2094 15.1816 74.3088L15.1267 74.0108Z" fill="#17171E"/>
<path d="M35.645 72.4213C35.0415 74.1101 34.3832 75.8486 33.7797 77.5374C33.67 77.8851 33.0665 78.8289 33.5603 79.0275C33.9992 79.2262 34.7672 79.1269 35.261 79.1269C36.4131 79.1269 37.5103 79.1269 38.6624 79.1269C40.9117 79.1269 43.2159 79.0275 45.4652 78.8785C45.7944 78.8785 46.5625 78.8785 46.6722 78.4812C46.7819 78.0838 46.2881 77.7361 46.0138 77.5374C45.3006 77.0904 44.4777 76.991 43.6548 76.8917C42.6124 76.7923 41.6798 76.2956 40.8569 75.7492C40.4728 75.5009 39.7596 75.1532 39.7048 74.6565C39.7048 74.0604 39.8693 73.365 40.0339 72.769C40.1437 72.3716 40.1985 71.6265 40.5277 71.2788C40.7471 71.0305 40.3631 70.6828 40.1437 70.9311C39.9242 71.1795 39.8693 71.5272 39.7596 71.8252C39.595 72.3716 39.4853 72.918 39.3756 73.4643C39.3207 73.9114 39.1561 74.3584 39.211 74.8055C39.211 75.1532 39.4853 75.3022 39.7596 75.5009C40.802 76.395 42.2284 77.1897 43.6548 77.3387C44.4777 77.438 45.4104 77.5374 46.0138 78.0838C46.0138 78.0838 46.1784 78.2825 46.2333 78.3321C46.2333 78.3321 46.4527 78.2328 46.2881 78.2328C46.2333 78.2328 46.1236 78.2328 46.0687 78.2328C44.2034 78.4812 42.2284 78.4315 40.3631 78.4812C38.3881 78.5308 36.3582 78.6302 34.3283 78.4812C34.2186 78.4812 34.054 78.4315 33.9443 78.4812H33.8895L33.9992 78.7295C34.1089 78.7295 34.3283 77.8851 34.3283 77.7858C34.9867 75.9976 35.645 74.2094 36.2485 72.4709C36.3582 72.1729 35.8096 72.0239 35.6999 72.3219L35.645 72.4213Z" fill="#17171E"/>
<path d="M40.8019 75.3022C41.1311 75.4015 41.4603 75.5505 41.8443 75.6499C42.4478 75.7989 43.1061 75.9479 43.7645 75.9479C44.0388 75.9479 44.3131 75.8982 44.5325 75.6995C44.752 75.5008 44.8068 75.3022 44.8068 75.0538C44.8068 74.4578 44.368 74.0107 43.7096 73.9114C43.2707 73.9114 42.8318 73.9114 42.4478 74.0604C41.8443 74.2591 41.2409 74.5571 40.6922 74.8551C40.4179 75.0041 40.6922 75.4512 40.9665 75.3022C41.6797 74.9048 42.5027 74.4081 43.3804 74.4081C43.545 74.4081 43.6548 74.4081 43.7645 74.4081H43.8193L43.9291 74.4577C44.0936 74.5571 44.1485 74.7061 44.1485 74.9048C44.1485 75.0538 44.1485 75.1035 44.1485 75.2028C43.9839 75.3022 43.8193 75.3022 43.5999 75.3022C43.0513 75.3022 42.5027 75.2028 41.954 75.0538C41.6249 74.9545 41.2408 74.8551 40.9117 74.7061C40.802 74.7061 40.6374 74.7558 40.5825 74.8551C40.5825 75.0041 40.6374 75.1035 40.8019 75.1532V75.3022Z" fill="#17171E"/>
<path d="M33.9991 5.86161C35.7547 8.74255 33.6699 12.0705 30.2137 12.6666C26.9768 13.213 23.6851 11.1268 23.6303 8.09682C23.6303 7.79879 23.0817 7.79879 23.0817 8.09682C23.0817 10.6301 25.2761 12.7163 28.0192 13.1633C30.7623 13.6103 33.6699 12.3685 34.7672 10.034C35.4255 8.59352 35.3158 6.95438 34.4928 5.61325C34.3283 5.31523 33.8345 5.61325 33.9991 5.86161Z" fill="#17171E"/>
<path d="M23.5207 8.09681C23.6304 7.55043 23.7401 7.00402 24.0693 6.55698C24.6179 5.86158 25.4957 5.76226 26.3186 6.10996C27.5256 6.60667 28.793 8.05296 30 8.5C30.9875 8.89737 31.5853 8.54386 32.4631 7.9478C32.8471 7.64978 33.1214 7.30206 33.286 6.90469C33.3409 6.706 33.3957 6.45765 33.3957 6.25897C33.3957 6.06028 33.3409 6.06029 33.3957 5.96095C33.5055 5.66292 33.8346 5.86161 33.9443 5.96095C34.1089 6.06029 34.2735 6.06027 34.3832 5.91126C35.3708 4.66948 36.5228 3.07999 35.7548 1.44084C35.1513 0.149382 33.4506 -0.198324 32.0791 0.099704C31.2013 0.29839 30.4332 0.795115 29.72 1.29183C29.336 1.54019 29.0068 1.88789 28.6228 2.13625C28.1839 2.43428 27.6901 2.43428 27.1415 2.48395C25.5505 2.68264 24.1241 3.57671 23.2464 4.76883C22.2588 6.25897 22.0394 8.09681 23.2464 9.4876C23.5207 9.78563 23.9596 9.38827 23.6853 9.09024C22.4234 7.64977 23.0818 5.51388 24.4533 4.32177C25.0568 3.72571 25.8797 3.32836 26.7575 3.12968C27.6353 2.93099 28.3485 3.03034 29.0617 2.48395C30.4332 1.44086 32.1888 -0.049304 34.1638 0.695767C35.1513 1.09314 35.5353 2.03691 35.3707 2.98067C35.2062 3.9741 34.5478 4.8185 33.8895 5.61324H34.3284C34.0541 5.31522 33.5055 5.01719 33.1214 5.21588C32.5728 5.46424 32.902 6.10994 32.7923 6.55698C32.6277 7.35172 31.8047 7.94779 30.927 7.99746C29.9943 8.09681 29.1165 7.69943 28.4033 7.15304C27.4158 6.40797 26.3186 5.26554 24.8374 5.61324C23.6304 5.91127 23.1915 7.10338 23.0818 8.09681C23.0178 8.67566 23.3561 8.2955 23.411 8.09681H23.5207Z" fill="#17171E"/>
<g filter="url(#filter2_d_65_1088)">
<path d="M18.6928 39.9859C18.6928 39.9859 19.0769 36.7075 19.3512 36.5585L38.4978 36.6579L38.827 39.4395C38.827 39.4395 43.0513 47.5856 43.3805 49.5227C43.8743 50.7149 40.418 70.5338 40.5277 70.6828L35.8645 70.1364C35.8645 70.1364 35.645 52.7514 35.0964 50.6652C34.7673 49.3738 28.6776 46.5922 28.6776 46.5922C28.6776 46.5922 22.972 49.3737 22.0943 51.1122C21.2165 52.8507 20.5581 69.0436 20.5581 69.0436L15.5109 70.037C15.5109 70.037 12.8227 52.2547 13.7004 49.9698C14.6331 47.3869 18.7477 39.9859 18.7477 39.9859H18.6928Z" fill="#17171E"/>
</g>
</g>
<defs>
<filter id="filter0_d_65_1088" x="0.530029" y="-6.10352e-05" width="55.8386" height="87.1518" filterUnits="userSpaceOnUse" color-interpolation-filters="sRGB">
<feFlood flood-opacity="0" result="BackgroundImageFix"/>
<feColorMatrix in="SourceAlpha" type="matrix" values="0 0 0 0 0 0 0 0 0 0 0 0 0 0 0 0 0 0 127 0" result="hardAlpha"/>
<feOffset dy="4"/>
<feGaussianBlur stdDeviation="2"/>
<feComposite in2="hardAlpha" operator="out"/>
<feColorMatrix type="matrix" values="0 0 0 0 0 0 0 0 0 0 0 0 0 0 0 0 0 0 0.25 0"/>
<feBlend mode="normal" in2="BackgroundImageFix" result="effect1_dropShadow_65_1088"/>
<feBlend mode="normal" in="SourceGraphic" in2="effect1_dropShadow_65_1088" result="shape"/>
</filter>
<filter id="filter1_d_65_1088" x="5.09204" y="12.9646" width="46.5676" height="39.442" filterUnits="userSpaceOnUse" color-interpolation-filters="sRGB">
<feFlood flood-opacity="0" result="BackgroundImageFix"/>
<feColorMatrix in="SourceAlpha" type="matrix" values="0 0 0 0 0 0 0 0 0 0 0 0 0 0 0 0 0 0 127 0" result="hardAlpha"/>
<feOffset dy="4"/>
<feGaussianBlur stdDeviation="2"/>
<feComposite in2="hardAlpha" operator="out"/>
<feColorMatrix type="matrix" values="0 0 0 0 0 0 0 0 0 0 0 0 0 0 0 0 0 0 0.25 0"/>
<feBlend mode="normal" in2="BackgroundImageFix" result="effect1_dropShadow_65_1088"/>
<feBlend mode="normal" in="SourceGraphic" in2="effect1_dropShadow_65_1088" result="shape"/>
</filter>
<filter id="filter2_d_65_1088" x="9.52429" y="36.5585" width="37.9045" height="42.1242" filterUnits="userSpaceOnUse" color-interpolation-filters="sRGB">
<feFlood flood-opacity="0" result="BackgroundImageFix"/>
<feColorMatrix in="SourceAlpha" type="matrix" values="0 0 0 0 0 0 0 0 0 0 0 0 0 0 0 0 0 0 127 0" result="hardAlpha"/>
<feOffset dy="4"/>
<feGaussianBlur stdDeviation="2"/>
<feComposite in2="hardAlpha" operator="out"/>
<feColorMatrix type="matrix" values="0 0 0 0 0 0 0 0 0 0 0 0 0 0 0 0 0 0 0.25 0"/>
<feBlend mode="normal" in2="BackgroundImageFix" result="effect1_dropShadow_65_1088"/>
<feBlend mode="normal" in="SourceGraphic" in2="effect1_dropShadow_65_1088" result="shape"/>
</filter>
</defs>
</svg>
