<svg width="353" height="177" viewBox="0 0 353 177" fill="none" xmlns="http://www.w3.org/2000/svg">
<g style="mix-blend-mode:color-burn" filter="url(#filter0_d_57_948)">
<path fill-rule="evenodd" clip-rule="evenodd" d="M300.884 21.7011C307.027 17.3284 313.002 13.9872 318.552 11.9991C322.727 10.4982 326.445 9.71875 329.615 10.4029C332.007 10.9217 333.613 12.2271 334.883 13.9878C336.621 16.3844 337.533 19.5526 337.782 23.3034C338.605 35.5693 332.15 53.685 319.142 72.85C306.134 92.0169 289.526 107.928 274.415 116.727C269.786 119.426 265.369 121.428 261.245 122.554C258.223 123.374 255.484 123.74 253.093 123.221C250.701 122.703 249.095 121.397 247.825 119.636C246.087 117.24 245.175 114.079 244.926 110.321C244.103 98.0549 250.558 79.9392 263.566 60.7743C271.762 48.6843 281.414 37.9007 291.22 29.3479C292.886 27.9065 292.189 25.9695 289.671 25.0303C287.167 24.0989 283.774 24.5089 282.108 25.9581C271.922 34.8342 261.891 46.0186 253.385 58.5637C237.385 82.1552 231.154 104.287 235.13 116.816C237.216 123.384 242.269 127.571 249.129 129.052C255.989 130.541 264.696 129.346 274.007 125.252C291.773 117.445 313.308 98.6459 329.309 75.0464C345.309 51.4549 351.54 29.3234 347.564 16.7945C345.478 10.2265 340.424 6.03903 333.564 4.5581C328.7 3.49773 323.027 3.74692 316.861 5.42012C309.429 7.43916 300.952 11.7059 292.38 17.8071C290.482 19.1567 290.852 21.1198 293.194 22.193C295.535 23.2662 298.97 23.0352 300.869 21.6856L300.884 21.7011Z" fill="#7CAA98" fill-opacity="0.88"/>
<path fill-rule="evenodd" clip-rule="evenodd" d="M107.489 2.62788C100.654 4.22853 95.6691 8.49016 93.69 15.0992C89.9319 27.6914 96.5086 49.7101 112.89 73.0451C129.272 96.3801 151.112 114.825 169.001 122.341C178.377 126.282 187.102 127.327 193.937 125.734C200.771 124.133 205.757 119.864 207.736 113.263C211.494 100.67 204.917 78.6516 188.535 55.3166C172.154 31.9816 150.313 13.5367 132.425 6.02103C123.049 2.07955 114.324 1.0351 107.489 2.62788ZM111.546 8.39943C113.929 7.84162 116.673 8.1547 119.708 8.93353C123.85 9.99201 128.312 11.9216 132.972 14.5442C148.224 23.1035 165.102 38.7333 178.406 57.6853C191.71 76.6373 198.458 94.6441 197.849 106.921C197.661 110.683 196.787 113.866 195.101 116.282C193.861 118.064 192.262 119.395 189.893 119.953C187.51 120.511 184.766 120.198 181.731 119.419C177.589 118.36 173.14 116.431 168.467 113.808C153.215 105.249 136.337 89.6191 123.033 70.6671C109.716 51.7152 102.967 33.7084 103.59 21.4316C103.778 17.6694 104.639 14.4868 106.338 12.0622C107.578 10.2887 109.177 8.95706 111.546 8.39943Z" fill="#7CAA98" fill-opacity="0.88"/>
<path fill-rule="evenodd" clip-rule="evenodd" d="M301.22 42.9361C273.791 71.9039 252.687 105.32 237.196 142.679C236.501 144.362 238.315 146.033 241.237 146.415C244.173 146.796 247.111 145.742 247.807 144.067C263.058 107.287 283.813 74.3892 310.809 45.8624C312.243 44.3449 311.272 42.4491 308.619 41.6437C305.967 40.8383 302.654 41.4108 301.22 42.9361Z" fill="#7CAA98" fill-opacity="0.88"/>
<path fill-rule="evenodd" clip-rule="evenodd" d="M130.932 43.5539C158.223 71.4656 179.424 103.803 195.231 140.064C195.954 141.728 198.922 142.733 201.838 142.304C204.754 141.874 206.54 140.166 205.817 138.503C189.762 101.667 168.189 68.825 140.458 40.4715C139 38.9776 135.667 38.451 133.042 39.2994C130.402 40.1479 129.463 42.0594 130.921 43.5532L130.932 43.5539Z" fill="#7CAA98" fill-opacity="0.88"/>
<path fill-rule="evenodd" clip-rule="evenodd" d="M278.571 82.5986L258.31 65.2796C256.648 63.8576 253.248 63.4796 250.746 64.4519C248.23 65.4166 247.551 67.3648 249.226 68.7868L269.474 86.1059C271.136 87.5357 274.535 87.9059 277.037 86.9336C279.553 85.969 280.233 84.0207 278.557 82.5987L278.571 82.5986Z" fill="#7CAA98" fill-opacity="0.88"/>
<path fill-rule="evenodd" clip-rule="evenodd" d="M172.897 83.1101L192.86 65.4626C194.499 64.0136 193.787 62.0767 191.27 61.1531C188.739 60.2297 185.359 60.6553 183.721 62.1042L163.758 79.7518C162.119 81.2007 162.83 83.1376 165.348 84.0612C167.879 84.9846 171.258 84.5591 172.897 83.1101Z" fill="#7CAA98" fill-opacity="0.88"/>
<path fill-rule="evenodd" clip-rule="evenodd" d="M290.038 66.9318L334.143 62.1086C337.114 61.7878 339.078 60.1489 338.546 58.4602C338 56.7637 335.168 55.6555 332.197 55.9841L288.092 60.8073C285.134 61.128 283.156 62.767 283.702 64.4556C284.234 66.1444 287.081 67.2603 290.038 66.9318Z" fill="#7CAA98" fill-opacity="0.88"/>
<path fill-rule="evenodd" clip-rule="evenodd" d="M153.872 58.1131L109.695 54.011C106.732 53.7387 103.904 54.8931 103.4 56.5903C102.895 58.2875 104.886 59.8942 107.848 60.1664L152.025 64.2686C154.988 64.5409 157.816 63.3864 158.32 61.6815C158.825 59.9842 156.834 58.3775 153.872 58.1053L153.872 58.1131Z" fill="#7CAA98" fill-opacity="0.88"/>
<path fill-rule="evenodd" clip-rule="evenodd" d="M135.122 129.28C116.913 128.586 98.5393 129.204 81.0167 131.969C50.3701 136.799 22.6564 146.411 7.19697 156.181C7.07636 156.252 6.96929 156.331 6.86221 156.41C3.95844 158.634 3.47101 161.61 5.60505 164.082C7.73909 166.553 12.1276 168.094 16.9206 168.054C69.4288 167.711 250.344 166.234 303.297 165.801C314.377 165.711 323.315 160.433 323.263 154.013L323.179 143.707C323.161 141.46 321.38 139.352 318.326 137.973C315.285 136.601 311.336 136.118 307.57 136.64C281.935 140.174 252.61 141.966 226.93 139.827C211.691 138.555 197.692 135.728 183.135 133.716C173.457 132.375 163.416 131.209 153.23 130.372C150.293 130.13 147.542 131.315 147.098 133.028C146.654 134.732 148.673 136.315 151.624 136.556C161.473 137.365 171.177 138.496 180.545 139.792C195.414 141.848 209.736 144.711 225.299 146.012C252.274 148.257 283.053 146.422 309.965 142.714C309.978 142.714 309.991 142.706 310.005 142.706C310.583 142.624 311.19 142.697 311.663 142.911C312.136 143.118 312.408 143.443 312.41 143.787L312.494 154.093C312.518 157.065 308.378 159.51 303.248 159.552C250.296 159.985 69.4078 161.462 16.8858 161.805L16.8723 161.805C16.1857 161.811 15.551 161.59 15.2519 161.233C14.9666 160.916 15.0038 160.533 15.3245 160.226C29.7256 151.198 55.4542 142.445 83.7588 137.978C100.138 135.394 117.301 134.848 134.312 135.497C137.276 135.613 139.864 134.305 140.092 132.586C140.32 130.868 138.087 129.38 135.124 129.264L135.122 129.28Z" fill="#7CAA98" fill-opacity="0.88"/>
<path fill-rule="evenodd" clip-rule="evenodd" d="M73.6859 114.849C83.1504 117.955 89.1894 124.171 92.6851 133.037C93.3398 134.717 96.2673 135.754 99.2107 135.363C102.154 134.972 103.995 133.288 103.341 131.608C99.0231 120.666 90.8603 113.25 79.1797 109.421C76.5811 108.568 73.2298 109.087 71.7142 110.59C70.1986 112.085 71.0734 113.989 73.6858 114.842L73.6859 114.849Z" fill="#7CAA98" fill-opacity="0.88"/>
<path fill-rule="evenodd" clip-rule="evenodd" d="M13.2602 127.093C22.7247 130.191 28.7638 136.415 32.2594 145.281C32.9142 146.961 35.8416 147.998 38.785 147.607C41.7146 147.217 43.5697 145.532 42.9149 143.852C38.5974 132.91 30.4346 125.494 18.7541 121.665C16.1554 120.812 12.8041 121.331 11.2886 122.834C9.77294 124.329 10.6479 126.241 13.2602 127.093Z" fill="#7CAA98" fill-opacity="0.88"/>
<path fill-rule="evenodd" clip-rule="evenodd" d="M116.473 109.115C104.857 113.134 96.8153 120.682 92.676 131.694C92.035 133.384 93.9172 135.031 96.8664 135.381C99.8019 135.724 102.712 134.639 103.353 132.948C106.705 124.019 112.642 117.713 122.054 114.453C124.639 113.558 125.496 111.64 123.956 110.17C122.417 108.7 119.071 108.228 116.473 109.123L116.473 109.115Z" fill="#7CAA98" fill-opacity="0.88"/>
<path fill-rule="evenodd" clip-rule="evenodd" d="M56.0475 121.367C44.4311 125.386 36.39 132.934 32.2506 143.946C31.6232 145.628 33.4918 147.283 36.441 147.633C39.3766 147.984 42.2869 146.891 42.9279 145.2C46.2792 136.271 52.2161 129.957 61.6289 126.705C64.2134 125.81 65.0708 123.891 63.531 122.414C61.9913 120.944 58.632 120.472 56.0475 121.367Z" fill="#7CAA98" fill-opacity="0.88"/>
</g>
<defs>
<filter id="filter0_d_57_948" x="0.287964" y="1.91339" width="352.441" height="174.142" filterUnits="userSpaceOnUse" color-interpolation-filters="sRGB">
<feFlood flood-opacity="0" result="BackgroundImageFix"/>
<feColorMatrix in="SourceAlpha" type="matrix" values="0 0 0 0 0 0 0 0 0 0 0 0 0 0 0 0 0 0 127 0" result="hardAlpha"/>
<feOffset dy="4"/>
<feGaussianBlur stdDeviation="2"/>
<feComposite in2="hardAlpha" operator="out"/>
<feColorMatrix type="matrix" values="0 0 0 0 0 0 0 0 0 0 0 0 0 0 0 0 0 0 0.25 0"/>
<feBlend mode="normal" in2="BackgroundImageFix" result="effect1_dropShadow_57_948"/>
<feBlend mode="normal" in="SourceGraphic" in2="effect1_dropShadow_57_948" result="shape"/>
</filter>
</defs>
</svg>
