<svg width="81" height="124" viewBox="0 0 81 124" fill="none" xmlns="http://www.w3.org/2000/svg">
<g filter="url(#filter0_dd_60_61)">
<path d="M49.9138 50.0153C49.8691 50.1942 54.1193 63.4817 56.4457 73.369C57.3852 77.4403 36.179 73.9059 36.2684 73.9954L36.4027 69.2978L48.169 68.9846L44.4109 61.3342C44.4109 61.3342 44.6794 68.6267 44.3662 70.4162C44.053 72.0716 42.5319 85.3591 42.5319 85.3591L38.1027 85.4486C38.1027 85.4486 38.3264 71.1321 38.3712 68.9399C38.4159 66.6134 34.9263 48.7626 34.9263 48.7626L49.9138 50.06V50.0153Z" fill="#17171E"/>
<path d="M42.3082 14.4477C42.5766 14.7162 42.7556 15.1188 42.9346 15.432C43.1135 15.7452 43.203 16.1926 43.2477 16.5952C43.2477 16.8189 43.2477 16.9979 43.2477 17.2216C43.2477 17.4005 43.1582 17.5347 43.2477 17.7137C43.3372 17.8479 43.5162 17.9374 43.6056 18.1163C43.8293 18.4295 43.9188 18.7874 43.7399 19.1453C43.4714 19.548 42.8898 19.6375 42.5319 19.5927C42.4424 19.5927 42.3529 19.5927 42.2635 19.6822C42.3082 19.5927 42.174 19.7717 42.1292 19.8164C41.995 19.9506 41.8161 20.0849 41.6371 20.1743C40.966 20.577 40.1607 20.7112 39.4002 20.6665C39.1317 20.6665 39.1317 21.1139 39.4002 21.1139C40.5187 21.1139 41.9056 20.8454 42.6214 19.9059L42.3529 19.9954C42.9793 20.1296 43.6951 19.9506 44.053 19.369C44.4557 18.698 44.053 17.8926 43.5162 17.4453V17.6689C43.7399 16.461 43.3372 15.1636 42.5319 14.2241C42.353 14.0004 42.0398 14.3135 42.2187 14.5372L42.3082 14.4477Z" fill="black"/>
<path d="M42.033 14.2684C42.3015 14.5368 39.3407 16.2474 42.5 15.5C42.3462 15 41.2807 15.0289 41.2807 15.2526C41.2807 15.4763 41.4236 16.7763 41.4236 17C41.4236 17.179 42.883 17.3554 42.9725 17.5343C43.062 17.6685 43.2409 17.758 43.3304 17.937C43.5542 18.2501 43.1515 17.1317 42.9725 17.4896C42.704 17.8922 43.3418 17.2902 42.9392 17.4373C42.9236 17.5 41.5131 16.9106 41.4236 17C41.4683 16.9106 40.9684 17.8897 40.9236 17.9345C40.7894 18.0687 39.179 18.4106 39 18.5C38 18 36.9236 13.4345 36.4236 17.9677C36.1552 17.9677 38.8565 20.9345 39.125 20.9345C40.2436 20.9345 41.6302 20.666 42.3462 19.7265L42.0777 19.816C42.7042 19.9502 43.4199 19.7713 43.7778 19.1897C44.1805 18.5186 43.7779 17.7133 43.2409 17.2659V17.4896C43.4647 16.2816 43.0621 14.9842 42.2567 14.0447C42.0777 13.821 41.7645 14.1341 41.9435 14.3578L42.033 14.2684Z" fill="#C69076"/>
<path d="M42.3083 86.0302C41.0108 87.8645 42.3977 90.4146 44.1873 91.3094C45.3058 91.8462 46.5137 92.1147 47.6769 92.5173C47.9006 92.6068 48.0796 92.6516 48.2585 92.741C48.3033 92.741 48.3927 92.8305 48.4375 92.8305C48.527 92.8305 48.4375 92.8305 48.527 92.741C48.527 92.741 48.2138 92.8305 48.0796 92.8305C46.3348 93.1437 44.5005 93.0989 42.7109 93.0989C40.8319 93.0989 38.9081 93.0989 37.029 92.7858C36.8053 92.7858 36.5817 92.6963 36.358 92.6068C36.4027 92.6963 36.358 92.6068 36.358 92.5173C36.4474 92.3384 36.4922 92.1147 36.5817 91.891C37.208 90.2804 37.8344 88.7145 38.2817 87.0592C38.3712 86.7907 37.9238 86.6565 37.8344 86.925C37.387 88.5356 36.8053 90.0567 36.179 91.5778C36 92.0252 35.5974 92.6963 36.179 92.9647C36.7606 93.2332 37.4764 93.2332 38.1028 93.2779C39.1765 93.3674 40.2055 93.4121 41.2792 93.4121C43.382 93.4121 45.4847 93.5016 47.5427 93.2332C47.8559 93.2332 48.6612 93.2332 48.8401 92.8752C49.198 92.2489 47.7217 91.891 47.3638 91.8015C45.9321 91.3541 44.1873 91.0857 43.1583 89.8777C42.3082 88.8935 41.8161 87.2829 42.6662 86.1197C42.8451 85.896 42.4425 85.6723 42.2635 85.896L42.3083 86.0302Z" fill="#17171E"/>
<path d="M43.2925 88.7145C43.6057 88.804 43.9188 88.8935 44.1873 89.0724C44.5004 89.2514 44.6794 89.5645 44.9478 89.7882C45.3952 90.2356 45.9768 90.5935 46.6479 90.4146C47.1848 90.2804 47.6322 89.7435 47.5427 89.1619C47.4085 88.4908 46.6927 88.2671 46.0663 88.1776C45.2163 88.0882 44.3662 88.0882 43.5162 88.2671C43.203 88.3119 43.3372 88.804 43.6504 88.7145C44.2767 88.5803 44.9031 88.5356 45.5742 88.5803C46.0663 88.5803 46.7821 88.625 47.0506 89.1171C47.2742 89.5645 46.6927 89.9672 46.29 89.9225C45.7084 89.833 45.3505 89.3856 44.9926 89.0277C44.7689 88.804 44.5452 88.6698 44.232 88.5355C43.9188 88.4013 43.6951 88.4013 43.382 88.4461C43.2477 88.4461 43.2925 88.625 43.382 88.6698L43.2925 88.7145Z" fill="#17171E"/>
<path d="M35.9551 73.5927C34.434 72.2058 31.8839 72.9663 30.7654 74.4427C30.0496 75.3823 29.6469 76.5007 29.1995 77.5745C29.0206 78.0219 28.7521 78.4245 28.5732 78.8272C28.4837 79.0061 28.5284 78.8272 28.5732 78.9614C28.5732 78.9614 28.5732 78.8272 28.5284 78.7824C28.439 78.1561 28.4837 77.485 28.5284 76.8586C28.5284 75.9191 28.6179 74.9349 28.7521 73.9953C28.9311 72.2058 29.0653 70.3715 29.6022 68.6267C29.6469 68.4924 29.7364 68.1793 29.8259 68.1345C29.6917 68.1345 29.7811 68.1793 29.8259 68.1345C29.9153 68.1345 30.0048 68.1793 30.0496 68.1793C30.2733 68.224 30.4522 68.3135 30.6759 68.3582C32.2418 68.8056 33.8076 69.2083 35.4182 69.4767C35.6867 69.5215 35.8209 69.0741 35.5525 69.0293C33.9866 68.7609 32.4655 68.403 30.9443 67.9556C30.5417 67.8214 29.7811 67.374 29.4232 67.8661C29.0653 68.3582 29.0206 68.9846 28.9311 69.5214C28.7521 70.5057 28.6179 71.49 28.4837 72.4742C28.26 74.398 28.0363 76.3665 28.1258 78.2903C28.1258 78.5587 28.1258 79.2298 28.4837 79.3193C29.1548 79.4982 29.5574 77.9771 29.7364 77.5745C30.318 76.1428 30.8996 74.5769 32.3313 73.7716C33.3603 73.19 34.8366 73.0111 35.7762 73.8611C35.9999 74.0401 36.313 73.7269 36.0893 73.548L35.9551 73.5927Z" fill="#17171E"/>
<path d="M33.1367 74.2638C33.0024 74.577 32.8682 74.8902 32.6445 75.1586C32.4208 75.427 32.1524 75.606 31.884 75.7849C31.3918 76.1428 30.9892 76.7245 31.0339 77.3508C31.0787 77.8877 31.526 78.4245 32.1077 78.3798C32.8235 78.3798 33.1814 77.664 33.3156 77.0376C33.5393 76.2323 33.584 75.3375 33.5393 74.5322C33.5393 74.2191 33.0472 74.2191 33.0472 74.5322C33.0919 75.1586 33.0472 75.8297 32.9577 76.4113C32.8682 76.9034 32.734 77.664 32.1971 77.8429C31.7497 77.9771 31.4366 77.4403 31.5261 77.0376C31.6155 76.5008 32.1077 76.1428 32.555 75.8297C33.0472 75.427 33.4051 74.8902 33.3604 74.2638C33.3604 74.1296 33.1814 74.1296 33.1367 74.2638Z" fill="#17171E"/>
<path d="M24.6492 46.9476C24.2466 47.1713 23.7097 47.4398 23.2623 47.4398C23.1728 47.4398 23.4413 47.6826 23.3965 47.5931C23.3965 47.5036 23.6339 47.4845 23.7234 47.4398C23.8576 47.3055 24.4681 47.4299 24.6471 47.3404C24.8261 47.2509 23.6202 46.3213 23.3965 46.366C22.5465 46.4555 21.607 46.545 20.7569 46.2766C20.578 46.2318 20.0155 45.5894 20.2648 45.9634C20.5141 46.3374 22.0096 46.8406 22.0544 46.7063C22.2333 46.2142 22.7347 46.9148 23.0926 46.5121C23.3247 46.2509 24.6492 47.3951 24.9177 47.1266C25.1414 46.9476 22.3708 42.1614 22.1471 42.3404C21.8787 42.5641 21.0701 43.5027 20.8464 43.7712C20.4438 44.2186 20.0858 44.7106 19.8622 45.2923C19.37 46.6346 21.1148 46.8582 22.0544 46.8582C22.5018 46.8582 22.9491 46.8582 23.3965 46.7687L23.307 46.366C23.0834 46.5002 22.8149 46.7239 22.636 46.9476C22.4123 47.3056 22.5465 47.7082 22.9491 47.8424C23.5755 48.0661 24.3808 47.6187 24.9177 47.3503C25.1861 47.2161 24.9177 46.8134 24.694 46.9476H24.6492Z" fill="#C69076"/>
<path d="M46.4999 39L46.9999 39.5L47.4976 40C47.4976 40 48.0599 40.6201 47.9999 40.5C48.2683 41.0369 48.616 41.0674 49 41.5C49 41.5 49.7237 41.4105 49.5 41.5C49.1421 41.6342 50.7188 41.1569 50.4056 41.0674C50.1372 40.9332 50.1372 40.978 50.4056 41.0674C51.0767 41.2911 51.9267 41.3359 52.3294 40.6201C52.6873 39.9937 52.5531 39.1437 52.3294 38.4726C52.061 37.712 51.5241 36.8172 50.7635 36.4593C50.003 36.1014 49.1977 36.4593 48.616 36.9962C48.1687 37.3988 47.8107 37.8462 47.4976 38.3384C47.3634 38.6068 45.8209 38.741 45.9999 38.4726L46.4999 39Z" fill="#C69076"/>
<path d="M47.7598 38.6218C47.7598 38.6218 48.3925 37.9357 48.6609 37.6673C49.0635 37.2199 49.6451 36.7278 50.2715 36.8172C50.9873 36.9067 51.5242 37.712 51.7926 38.2936C52.0611 38.8305 52.24 39.5911 52.0611 40.1727C52.0163 40.3964 51.8374 40.62 51.6137 40.7095C51.2558 40.8437 50.8531 40.7095 50.5399 40.6201C50.2715 40.5306 50.1373 40.9332 50.4057 41.0674C51.0768 41.2911 51.9268 41.3359 52.3295 40.6201C52.6874 39.9937 52.5532 39.1437 52.3295 38.4726C52.0611 37.712 51.5242 36.8172 50.7636 36.4593C50.0031 36.1014 49.1978 36.4593 48.6161 36.9962C48.1688 37.3988 46.9695 38.5378 46.6563 39.0299C46.5221 39.2984 47.3668 38.909 47.3668 38.909L47.7598 38.6218Z" fill="black"/>
<path d="M48.3032 39.0989C48.3032 39.0989 48.4374 39.4121 48.6164 39.4568C48.8401 39.5463 49.0638 39.4568 49.2875 39.4568C49.7796 39.3674 50.1823 39.591 50.5849 39.8595C50.8981 40.0384 51.4349 40.3516 51.7481 40.0384C52.0613 39.7253 51.7481 39.1884 51.5244 38.8752C51.1665 38.4278 50.7639 38.0252 50.2717 37.712C50.048 37.5778 49.8691 37.9357 50.048 38.0699C50.4954 38.3384 50.8533 38.6963 51.1665 39.0542C51.3007 39.2331 51.5244 39.4568 51.5244 39.6805C51.5244 39.9937 51.1218 39.8147 50.9876 39.7253C50.5849 39.5463 50.227 39.2331 49.8243 39.1437C49.6007 39.1437 49.377 39.1437 49.1533 39.1884C48.9743 39.2331 48.6164 39.2779 48.5717 39.0094C48.5717 38.8752 48.3032 39.0094 48.3032 39.0094L48.3032 39.0989Z" fill="black"/>
<path d="M46.8715 38.5173L51.3454 42.8122L48.2584 46.6598L46.8715 38.5173Z" fill="#56766A"/>
<path d="M22.4441 90.9067C21.7282 91.1751 17.1201 93.0094 18.1491 94.1726C18.3281 94.3963 18.7307 94.441 18.9992 94.4858C19.6255 94.62 20.2518 94.6647 20.8782 94.7095C25.71 95.1121 30.5865 95.0674 35.4184 95.0674C41.2792 95.0674 47.14 94.9779 53.0455 94.8437C55.1483 94.8437 57.2063 94.7542 59.309 94.6648C59.9353 94.6648 60.5617 94.62 61.188 94.5753C61.6802 94.5753 62.3512 94.5753 62.7539 94.2174C63.5592 93.5015 62.1723 92.4278 61.6802 92.0251C61.2775 91.712 60.9196 91.4435 60.4722 91.1751C60.159 90.9962 59.8459 90.9514 59.5327 90.9067C56.7141 90.504 53.7614 90.5488 50.9428 90.504H50.227C49.9585 90.504 49.9585 90.9514 50.227 90.9514C52.5087 90.9514 54.7903 90.9514 57.1168 91.1304C57.7879 91.1304 58.4589 91.2198 59.13 91.3093C59.4879 91.3093 59.8906 91.3541 60.2038 91.533C60.6064 91.712 60.9643 92.0252 61.2775 92.2936C61.6802 92.6068 62.1723 92.9647 62.4407 93.4568C62.7986 94.1279 61.8591 94.1279 61.4117 94.1279C60.8749 94.1279 60.338 94.1726 59.8011 94.2174C57.9668 94.3068 56.1325 94.3516 54.2982 94.3963C48.8848 94.5305 43.4267 94.62 38.0132 94.62C33.0025 94.62 27.9917 94.62 23.0257 94.3963C21.6835 94.3068 20.2966 94.3068 18.9992 94.0384C18.8649 94.0384 18.686 93.9489 18.5965 93.9042C18.507 93.8594 18.507 93.9042 18.507 93.9042C18.507 93.9042 18.507 93.77 18.5965 93.6358C18.9097 93.1884 19.536 92.8752 19.9834 92.6068C20.565 92.2936 21.1466 91.9804 21.773 91.712C22.0414 91.5778 22.3098 91.4883 22.5783 91.3541C22.8467 91.2198 22.7125 90.8172 22.4441 90.9067Z" fill="#17171E"/>
<g filter="url(#filter1_dd_60_61)">
<path d="M27.0521 95.2017C27.0521 96.2754 25.8442 96.7675 24.9047 96.7675C23.9652 96.7675 22.623 96.0517 22.5782 94.978C22.5782 94.7095 22.1309 94.7095 22.1309 94.978C22.1309 96.3201 23.6967 97.2149 24.9047 97.2149C26.1126 97.2149 27.4548 96.4991 27.4995 95.2017C27.4995 94.9332 27.0521 94.9332 27.0521 95.2017Z" fill="#17171E"/>
</g>
<g filter="url(#filter2_dd_60_61)">
<path d="M57.1166 94.799C57.1166 95.8727 55.9534 96.4991 54.9691 96.4991C53.9849 96.4991 52.8664 95.9622 52.8217 94.9332C52.8217 94.6648 52.3743 94.6648 52.3743 94.9332C52.3743 96.2307 53.7612 96.9465 54.9691 96.9465C56.1771 96.9465 57.5192 96.0964 57.564 94.799C57.564 94.5306 57.1166 94.5306 57.1166 94.799Z" fill="#17171E"/>
</g>
<path d="M30.1838 40.2174C30.3181 39.7253 30.5865 39.3226 30.8102 38.8753C31.0786 38.3831 31.347 37.891 31.6155 37.3541C32.1523 36.4146 32.6892 35.4304 33.2708 34.4908C34.2998 32.8802 35.8209 31.3591 36.3131 29.4801C36.4025 29.1669 35.9104 29.0327 35.821 29.3459C35.1499 31.4038 33.5393 33.1039 32.4655 34.9382C31.8839 35.9225 31.347 36.9067 30.8549 37.9357C30.5865 38.4726 30.2733 39.0095 30.0496 39.5463C29.9601 39.8148 29.8707 40.0385 30.0496 40.2174H30.1838Z" fill="#17171E"/>
<path d="M36.5625 18.5C36.7415 16.7552 35.7729 16.5369 37.5625 16C39.5625 20.5 40.3914 17.4105 41.0625 17.5C41.152 17.5 41.375 16.7294 41.0625 15.5C41.8231 14.2026 42.5 14.5 43.5 14C44.3948 14.4921 45.0058 12.3897 44.3795 13.195C43.7531 14.0003 42.8136 14.0003 41.9188 14.3135C40.4424 14.8056 41.5961 16.1059 41.1935 17.1349C40.8803 17.9849 39.7783 18.5369 39.0625 18C38.5704 17.6421 38.5625 17.5 38.0265 16.3715C37.5625 15.5 37.0422 15.7004 36.6396 16.1031C36.3264 16.4163 36.4159 16.9979 36.5054 17.3558C36.5949 17.6242 36.5447 17.3132 36.5 17C36.5 16.8211 36.6396 16.9133 36.6396 16.7344C36.6396 16.287 37.4002 16.1926 37.6686 16.5505C38.0265 17.0426 38.0659 18.0526 38.558 18.5C39.0949 18.9921 39.8737 18.3132 40.5 18C40.9234 17.66 40.9591 17.7365 41.2656 17.1349C41.2656 16.598 41.0208 15.21 41.6024 14.8074C41.9603 14.5837 42.5451 14.6267 42.9478 14.5372C43.4141 14.3135 43.8368 14.17 44.2395 13.8568C44.9106 13.3647 44.8153 12.7237 45 12.0766C44.8658 11.316 44.7158 10.7684 44 10.5C42.3894 9.87365 40.1292 10.5107 39.3239 11.9424L39.5924 11.8529C38.6976 11.6739 37.7133 11.8081 36.908 12.0766C35.0737 12.7477 34.2237 14.4477 34 16.3268C34 16.5952 34.4553 16.7684 34.5 16.5L36.5625 18.5Z" fill="#977961"/>
<path d="M34.2999 16.3268C34.4789 14.582 35.3289 12.9714 37.1185 12.4345C37.7896 12.2108 38.6844 12.1661 39.3554 12.2555C39.4449 12.2555 39.5791 12.2555 39.6239 12.1661C40.3844 10.8686 42.3977 9.92911 43.8293 10.6897C44.7241 11.1818 44.9478 12.3898 44.3215 13.1951C43.6951 14.0004 42.7556 14.0004 41.8608 14.3135C40.3844 14.8057 41.3687 16.1926 40.966 17.2216C40.6529 18.0716 39.4002 18.4295 38.6844 17.8927C38.1922 17.5347 38.2817 16.8637 37.9685 16.3715C37.7001 15.9241 36.9843 15.7004 36.5816 16.1031C36.2684 16.4163 36.3579 16.9979 36.4474 17.3558C36.5369 17.6242 36.9395 17.5347 36.8948 17.2216C36.8948 17.0426 36.8501 16.9084 36.8501 16.7294C36.8501 16.282 37.3422 16.1926 37.6106 16.5505C37.9685 17.0426 38.0079 18.0526 38.5 18.5C39.0369 18.9922 39.8923 18.6532 40.5187 18.34C41.1003 18.0716 41.4582 17.4453 41.5029 16.8189C41.5029 16.2821 41.1003 15.2531 41.6819 14.8504C42.0398 14.6267 42.4872 14.6267 42.8898 14.5372C43.3819 14.4477 43.8293 14.2241 44.232 13.9109C44.9031 13.4188 45.3057 12.6582 45.1268 11.8529C44.9925 11.0923 44.5004 10.466 43.7846 10.1976C42.174 9.57121 40.0713 10.5107 39.266 11.9424L39.5344 11.8529C38.6396 11.6739 37.6554 11.8081 36.8501 12.0766C35.0158 12.7477 34.1657 14.4478 33.942 16.3268C33.942 16.5952 34.3447 16.5952 34.3894 16.3268H34.2999Z" fill="#17171E"/>
<g filter="url(#filter3_d_60_61)">
<path d="M44.8135 31.0012C44.8583 31.1354 51.5244 54.4445 51.256 54.6234C50.9875 54.8024 32.8235 54.6234 31.4813 54.4892C30.1391 54.355 28.2154 54.2655 27.4548 51.5812C27.0969 50.3285 27.9469 47.3757 28.5733 42.4991C28.5733 42.4544 27.4995 44.6466 27.1864 45.4072C26.5153 46.9283 25.531 48.4942 25.5758 48.3152L21.5045 42.186C21.5493 41.9623 25.4415 33.9987 25.531 33.8198C27.3653 30.688 31.884 23.9772 31.884 23.9772C31.884 23.9772 30.4523 24.1114 29.7365 22.3666C29.0207 20.6218 33.4051 16.2374 33.763 16.0137C34.1209 15.79 39.8475 21.0692 39.8475 21.0692C42.1292 21.6508 42.9345 24.8272 42.9345 24.8272C43.5161 26.8405 44.7688 30.9565 44.7688 30.9565L44.8135 31.0012Z" fill="#56766A"/>
</g>
<path d="M24.5021 47.1072C24.0995 47.3309 23.5626 47.5994 23.1152 47.5994C23.0257 47.5994 22.8468 47.5994 22.802 47.5099C22.802 47.4204 22.802 47.3309 22.8915 47.2862C23.0257 47.152 23.16 47.0177 23.3389 46.9283C23.5179 46.8388 23.4731 46.4809 23.2494 46.5256C22.3994 46.6151 21.4599 46.7046 20.6098 46.4361C20.4309 46.3914 20.2072 46.3019 20.1177 46.123C20.0282 45.9888 20.073 45.7651 20.1177 45.6308C20.2967 45.1387 20.6098 44.6913 20.9677 44.2887C21.1914 44.0202 21.4599 43.7518 21.7283 43.4834C21.952 43.3044 21.6388 42.9912 21.4151 43.1702C21.1467 43.3939 20.923 43.6623 20.6993 43.9308C20.2967 44.3782 19.9388 44.8703 19.7151 45.4519C19.2229 46.7941 20.9677 47.0178 21.9073 47.0178C22.3547 47.0178 22.802 47.0177 23.2494 46.9283L23.16 46.5256C22.9363 46.6598 22.6678 46.8835 22.4889 47.1072C22.2652 47.4651 22.3994 47.8678 22.802 48.002C23.4284 48.2257 24.2337 47.7783 24.7706 47.5099C25.039 47.3757 24.7706 46.973 24.5469 47.1072H24.5021Z" fill="black"/>
<path d="M22.3994 45.4071C22.2204 45.4071 22.0414 45.4966 21.8625 45.5414C21.6835 45.5861 21.5046 45.6756 21.3704 45.7651C21.2361 45.8545 21.0572 45.944 20.923 46.0335C20.7887 46.123 20.6098 46.2572 20.4756 46.3914C20.3414 46.5704 20.5203 46.8388 20.6993 46.7046C20.8335 46.6151 20.9677 46.4809 21.1019 46.3914C21.2361 46.3019 21.3703 46.1677 21.5493 46.123C21.7283 46.0782 21.8625 45.944 21.9967 45.8545C22.1757 45.765 22.3546 45.6756 22.4441 45.5861C22.4888 45.5413 22.4441 45.4071 22.3546 45.4071H22.3994Z" fill="black"/>
<path d="M21.6388 44.3334C20.8335 44.5571 20.1177 45.1835 19.6703 45.8993C19.5361 46.123 19.894 46.3914 20.073 46.123C20.2519 45.8098 20.5204 45.4966 20.7888 45.2282C21.0572 44.9598 21.4151 44.7361 21.7283 44.5124C21.8178 44.4676 21.7283 44.2887 21.6388 44.3334Z" fill="black"/>
</g>
<defs>
<filter id="filter0_dd_60_61" x="0" y="3.05176e-05" width="81" height="123.215" filterUnits="userSpaceOnUse" color-interpolation-filters="sRGB">
<feFlood flood-opacity="0" result="BackgroundImageFix"/>
<feColorMatrix in="SourceAlpha" type="matrix" values="0 0 0 0 0 0 0 0 0 0 0 0 0 0 0 0 0 0 127 0" result="hardAlpha"/>
<feOffset dy="4"/>
<feGaussianBlur stdDeviation="2"/>
<feColorMatrix type="matrix" values="0 0 0 0 0 0 0 0 0 0 0 0 0 0 0 0 0 0 0.3 0"/>
<feBlend mode="normal" in2="BackgroundImageFix" result="effect1_dropShadow_60_61"/>
<feColorMatrix in="SourceAlpha" type="matrix" values="0 0 0 0 0 0 0 0 0 0 0 0 0 0 0 0 0 0 127 0" result="hardAlpha"/>
<feMorphology radius="6" operator="dilate" in="SourceAlpha" result="effect2_dropShadow_60_61"/>
<feOffset dy="8"/>
<feGaussianBlur stdDeviation="6"/>
<feColorMatrix type="matrix" values="0 0 0 0 0 0 0 0 0 0 0 0 0 0 0 0 0 0 0.15 0"/>
<feBlend mode="normal" in2="effect1_dropShadow_60_61" result="effect2_dropShadow_60_61"/>
<feBlend mode="normal" in="SourceGraphic" in2="effect2_dropShadow_60_61" result="shape"/>
</filter>
<filter id="filter1_dd_60_61" x="18.1309" y="91.7766" width="13.3687" height="10.4383" filterUnits="userSpaceOnUse" color-interpolation-filters="sRGB">
<feFlood flood-opacity="0" result="BackgroundImageFix"/>
<feColorMatrix in="SourceAlpha" type="matrix" values="0 0 0 0 0 0 0 0 0 0 0 0 0 0 0 0 0 0 127 0" result="hardAlpha"/>
<feMorphology radius="1" operator="dilate" in="SourceAlpha" result="effect1_dropShadow_60_61"/>
<feOffset dy="1"/>
<feGaussianBlur stdDeviation="1.5"/>
<feColorMatrix type="matrix" values="0 0 0 0 0 0 0 0 0 0 0 0 0 0 0 0 0 0 0.15 0"/>
<feBlend mode="normal" in2="BackgroundImageFix" result="effect1_dropShadow_60_61"/>
<feColorMatrix in="SourceAlpha" type="matrix" values="0 0 0 0 0 0 0 0 0 0 0 0 0 0 0 0 0 0 127 0" result="hardAlpha"/>
<feOffset dy="1"/>
<feGaussianBlur stdDeviation="1"/>
<feColorMatrix type="matrix" values="0 0 0 0 0 0 0 0 0 0 0 0 0 0 0 0 0 0 0.3 0"/>
<feBlend mode="normal" in2="effect1_dropShadow_60_61" result="effect2_dropShadow_60_61"/>
<feBlend mode="normal" in="SourceGraphic" in2="effect2_dropShadow_60_61" result="shape"/>
</filter>
<filter id="filter2_dd_60_61" x="48.3743" y="91.5977" width="13.1897" height="10.3488" filterUnits="userSpaceOnUse" color-interpolation-filters="sRGB">
<feFlood flood-opacity="0" result="BackgroundImageFix"/>
<feColorMatrix in="SourceAlpha" type="matrix" values="0 0 0 0 0 0 0 0 0 0 0 0 0 0 0 0 0 0 127 0" result="hardAlpha"/>
<feMorphology radius="1" operator="dilate" in="SourceAlpha" result="effect1_dropShadow_60_61"/>
<feOffset dy="1"/>
<feGaussianBlur stdDeviation="1.5"/>
<feColorMatrix type="matrix" values="0 0 0 0 0 0 0 0 0 0 0 0 0 0 0 0 0 0 0.15 0"/>
<feBlend mode="normal" in2="BackgroundImageFix" result="effect1_dropShadow_60_61"/>
<feColorMatrix in="SourceAlpha" type="matrix" values="0 0 0 0 0 0 0 0 0 0 0 0 0 0 0 0 0 0 127 0" result="hardAlpha"/>
<feOffset dy="1"/>
<feGaussianBlur stdDeviation="1"/>
<feColorMatrix type="matrix" values="0 0 0 0 0 0 0 0 0 0 0 0 0 0 0 0 0 0 0.3 0"/>
<feBlend mode="normal" in2="effect1_dropShadow_60_61" result="effect2_dropShadow_60_61"/>
<feBlend mode="normal" in="SourceGraphic" in2="effect2_dropShadow_60_61" result="shape"/>
</filter>
<filter id="filter3_d_60_61" x="17.5045" y="16.0067" width="37.7593" height="46.692" filterUnits="userSpaceOnUse" color-interpolation-filters="sRGB">
<feFlood flood-opacity="0" result="BackgroundImageFix"/>
<feColorMatrix in="SourceAlpha" type="matrix" values="0 0 0 0 0 0 0 0 0 0 0 0 0 0 0 0 0 0 127 0" result="hardAlpha"/>
<feOffset dy="4"/>
<feGaussianBlur stdDeviation="2"/>
<feComposite in2="hardAlpha" operator="out"/>
<feColorMatrix type="matrix" values="0 0 0 0 0 0 0 0 0 0 0 0 0 0 0 0 0 0 0.25 0"/>
<feBlend mode="normal" in2="BackgroundImageFix" result="effect1_dropShadow_60_61"/>
<feBlend mode="normal" in="SourceGraphic" in2="effect1_dropShadow_60_61" result="shape"/>
</filter>
</defs>
</svg>
